<svg xmlns="http://www.w3.org/2000/svg" aria-hidden="true" style="position:absolute;width:0;height:0;overflow:hidden">
	<defs>
    <!-- delete -->
    <symbol id="delete" viewBox="0 0 24 24" fill="#000000">
      <g id="SVGRepo_bgCarrier" stroke-width="0"></g>
      <g id="SVGRepo_tracerCarrier" stroke-linecap="round" stroke-linejoin="round"></g>
      <g id="SVGRepo_iconCarrier">
        <path id="secondary-fill" d="M13,20.93,7.93,21a1,1,0,0,1-1-.93L6,7l8.93-.07L14,20A1,1,0,0,1,13,20.93Z" style="fill: #6b416b; stroke-width:0.8399999999999999;"></path>
        <path id="primary-stroke" d="M4,7H20M16,7V4a1,1,0,0,0-1-1H9A1,1,0,0,0,8,4V7m9.07,13.07L18,7H6l.93,13.07a1,1,0,0,0,1,.93h8.14A1,1,0,0,0,17.07,20.07ZM12,11v6" style="fill: none; stroke: #000000; stroke-linecap: round; stroke-linejoin: round; stroke-width:0.8399999999999999;"></path>
      </g>
    </symbol>
	</defs>
</svg>