<svg xmlns="http://www.w3.org/2000/svg" aria-hidden="true" style="position:absolute;width:0;height:0;overflow:hidden">
	<defs>
    <!-- delete -->
    <symbol id="delete" viewBox="0 0 24 24" fill="#000000">
      <g id="SVGRepo_bgCarrier" stroke-width="0"></g>
      <g id="SVGRepo_tracerCarrier" stroke-linecap="round" stroke-linejoin="round"></g>
      <g id="SVGRepo_iconCarrier">
        <path id="secondary-fill" d="M13,20.93,7.93,21a1,1,0,0,1-1-.93L6,7l8.93-.07L14,20A1,1,0,0,1,13,20.93Z" style="fill: #6b416b; stroke-width:0.8399999999999999;"></path>
        <path id="primary-stroke" d="M4,7H20M16,7V4a1,1,0,0,0-1-1H9A1,1,0,0,0,8,4V7m9.07,13.07L18,7H6l.93,13.07a1,1,0,0,0,1,.93h8.14A1,1,0,0,0,17.07,20.07ZM12,11v6" style="fill: none; stroke: #000000; stroke-linecap: round; stroke-linejoin: round; stroke-width:0.8399999999999999;"></path>
      </g>
    </symbol>

    <!-- avatar-0 -->
    <symbol id="avatar-0" viewBox="0 0 511.999 511.999" xml:space="preserve" fill="#000000"><g id="SVGRepo_bgCarrier" stroke-width="0"></g><g id="SVGRepo_tracerCarrier" stroke-linecap="round" stroke-linejoin="round"></g><g id="SVGRepo_iconCarrier"> <path style="fill:#C6DCD1;" d="M400.172,461.884L400.172,461.884c-6.116-22.254-17.296-42.399-32.21-59.135 c-2.773-3.113-5.678-6.107-8.702-8.974c-6.839,6.618-13.036,13.891-18.502,21.713l-19.151-14.955l-139.391-26.876 c-1.943,1.147-3.854,2.343-5.739,3.575c-7.88,5.156-15.234,11.044-21.973,17.563c-19.102,18.481-33.242,42.051-40.232,68.514 c10.935,6.317,22.331,11.919,34.12,16.757l18.574-35.384l11.434,45.767c25.102,7.127,51.611,10.888,79.013,10.752 c21.186-0.105,41.815-2.533,61.652-7.037c5.821-1.321,11.571-2.828,17.25-4.501c8.192-2.414,16.229-5.19,24.092-8.305 c1.948-0.771,3.884-1.563,5.811-2.376c0.707-0.299,1.413-0.597,2.117-0.901c2.747-1.186,5.472-2.414,8.173-3.683 c5.403-2.538,10.713-5.24,15.923-8.101C395.037,464.865,397.617,463.394,400.172,461.884L400.172,461.884L400.172,461.884z"></path> <g> <path style="fill:#92BCBC;" d="M389.7,434.684c-10.31-20.466-25.225-38.205-43.381-51.862c-2.888-2.173-5.858-4.24-8.904-6.201 c-1.994-1.283-4.02-2.521-6.077-3.709l-149.123,0.743c-2.046,1.209-4.059,2.466-6.04,3.769 c18.309,24.703,47.72,40.666,80.824,40.501c16.269-0.081,31.606-4.052,45.145-11.017c4.839-2.49,10.658-2.095,15.234,0.85 c0.094,0.06,0.188,0.121,0.281,0.181c11.422,7.397,18.349,20.052,18.417,33.66l0.239,48.064 c10.22-3.012,20.199-6.586,29.902-10.682l0,0l0,0c4.381-1.849,8.705-3.805,12.971-5.863c0.027-0.014,0.056-0.026,0.083-0.04 c1.34-0.646,2.673-1.305,4.001-1.973c0.101-0.051,0.202-0.1,0.303-0.151c1.246-0.628,2.486-1.268,3.722-1.914 c0.174-0.091,0.35-0.18,0.526-0.271c1.154-0.606,2.3-1.224,3.445-1.844c0.247-0.134,0.496-0.265,0.743-0.4 c1.092-0.597,2.176-1.205,3.258-1.816c0.286-0.162,0.575-0.318,0.86-0.481c1.326-0.754,2.645-1.52,3.958-2.295 c0.027-0.016,0.056-0.032,0.083-0.048C397.565,452.401,394.041,443.301,389.7,434.684z"></path> <path style="fill:#92BCBC;" d="M148.392,480.065c9.744,3.999,19.758,7.473,30.008,10.383l-0.333-66.913 C163.147,438.779,152.59,458.296,148.392,480.065z"></path> <path style="fill:#92BCBC;" d="M446.95,160.976c-9.049,0.046-17.575,2.266-25.104,6.145 c-16.937-62.801-63.595-120.05-122.313-139.782L166.062,364.922c26.434,16.159,57.539,25.41,90.798,25.243 c78.282-0.39,144.127-52.801,164.971-124.307c7.691,3.965,16.419,6.197,25.67,6.151c30.661-0.153,55.393-25.132,55.24-55.794 S477.611,160.823,446.95,160.976z"></path> </g> <path style="fill:#C6DCD1;" d="M391.617,198.263c-0.328-65.918-37.605-134.804-92.083-170.924 c-14.216-4.777-29.137-7.365-44.517-7.289C176.114,20.444,109.92,90.564,89.66,168.776c-7.568-3.804-16.114-5.94-25.164-5.895 c-30.661,0.153-55.393,25.132-55.24,55.794c0.153,30.662,25.132,55.393,55.794,55.24c9.252-0.046,17.957-2.365,25.609-6.407 c12.398,41.003,39.62,75.539,75.403,97.413c18.309,4.578,36.516,7.008,53.695,6.922C315.148,371.37,392.092,293.654,391.617,198.263 z"></path> <circle style="fill:#92BCBC;" cx="64.771" cy="218.395" r="18.506"></circle> <circle style="fill:#78ABB1;" cx="447.229" cy="216.495" r="18.506"></circle> <circle cx="194.313" cy="217.445" r="18.506"></circle> <path d="M283.759,235.951c0-5.111-4.143-9.253-9.253-9.253c-5.11,0-9.253,4.142-9.253,9.253c0,5.103-4.15,9.253-9.253,9.253 s-9.253-4.15-9.253-9.253c0-5.111-4.143-9.253-9.253-9.253c-5.11,0-9.253,4.142-9.253,9.253c0,15.306,12.452,27.759,27.759,27.759 S283.759,251.257,283.759,235.951z"></path> <circle cx="317.687" cy="217.445" r="18.506"></circle> <path d="M447.229,152.674c-6.563,0-12.954,0.96-19.097,2.864c-11.716-37.208-33.099-71.555-60.917-97.588 C334.247,27.101,295.789,10.795,256,10.795S177.753,27.101,144.785,57.95c-27.819,26.033-49.203,60.379-60.917,97.588 c-6.143-1.905-12.534-2.865-19.097-2.865C29.056,152.674,0,181.731,0,217.445s29.056,64.771,64.771,64.771 c6.774,0,13.532-1.078,19.962-3.16c14.484,40.328,42.549,73.753,78.594,95.068c-28.718,21.048-49.945,51.675-59.213,86.067 c-1.33,4.934,1.593,10.012,6.528,11.34c0.806,0.218,1.616,0.322,2.413,0.322c4.08,0,7.816-2.72,8.929-6.848 c8.994-33.376,30.766-62.737,60.063-81.253c11.118,4.937,22.813,8.815,34.968,11.469c4.99,1.092,9.923-2.074,11.014-7.066 c1.091-4.993-2.073-9.924-7.066-11.015c-12.373-2.702-24.219-6.805-35.375-12.123c-0.126-0.063-0.254-0.12-0.382-0.178 c-41.054-19.698-72.627-56.014-85.923-100.794l-0.835-2.812c-0.035-0.159-0.062-0.32-0.106-0.479 c-3.855-14.065-5.81-28.637-5.81-43.311c0-15.306-12.452-27.759-27.759-27.759s-27.759,12.453-27.759,27.759 c0,5.111,4.143,9.253,9.253,9.253s9.253-4.142,9.253-9.253c0-5.103,4.15-9.253,9.253-9.253s9.253,4.15,9.253,9.253 c0,14.832,1.816,29.571,5.363,43.888c-4.682,1.568-9.57,2.377-14.616,2.377c-25.511,0-46.265-20.754-46.265-46.265 S39.26,171.18,64.771,171.18c7.354,0,14.399,1.687,20.938,5.014l10.213,5.196l2.929-11.078 C116.922,101.953,178.14,29.301,256,29.301s139.078,72.653,157.148,141.012l2.929,11.078l10.213-5.196 c6.539-3.327,13.583-5.014,20.938-5.014c25.511,0,46.265,20.754,46.265,46.265s-20.754,46.265-46.265,46.265 c-5.046,0-9.934-0.809-14.616-2.377c3.547-14.316,5.363-29.056,5.363-43.888c0-5.103,4.15-9.253,9.253-9.253s9.253,4.15,9.253,9.253 c0,5.111,4.143,9.253,9.253,9.253c5.11,0,9.253-4.142,9.253-9.253c0-15.306-12.452-27.759-27.759-27.759 s-27.759,12.453-27.759,27.759c0,14.675-1.954,29.247-5.811,43.314c-0.043,0.159-0.07,0.32-0.106,0.479l-0.835,2.812 c-13.293,44.775-44.862,81.087-85.909,100.786c-0.136,0.06-0.27,0.121-0.402,0.186c-11.154,5.316-22.998,9.418-35.369,12.12 c-11.461,2.502-23.25,3.772-35.038,3.772c-5.11,0-9.253,4.142-9.253,9.253c0,5.111,4.143,9.253,9.253,9.253 c13.113,0,26.23-1.413,38.986-4.197c12.156-2.655,23.849-6.531,34.968-11.469c29.298,18.516,51.069,47.876,60.063,81.253 c1.113,4.129,4.849,6.848,8.929,6.848c0.797,0,1.608-0.104,2.413-0.322c4.935-1.329,7.856-6.407,6.528-11.34 c-9.268-34.392-30.494-65.019-59.213-86.067c36.045-21.315,64.111-54.74,78.594-95.068c6.429,2.081,13.187,3.16,19.962,3.16 c35.715,0,64.771-29.057,64.771-64.771S482.944,152.674,447.229,152.674z"></path> <path d="M341.057,416.146c-3.614-3.612-9.473-3.614-13.085,0.001c-3.614,3.614-3.614,9.473,0,13.085 c14.32,14.319,23.957,32.334,27.866,52.097c0.872,4.406,4.739,7.458,9.067,7.458c0.596,0,1.2-0.058,1.806-0.178 c5.013-0.992,8.273-5.86,7.282-10.873C369.369,454.366,357.979,433.068,341.057,416.146z"></path> <path d="M170.943,416.146c-16.922,16.922-28.312,38.22-32.936,61.591c-0.992,5.013,2.268,9.882,7.282,10.873 c0.606,0.121,1.21,0.178,1.806,0.178c4.328,0,8.194-3.052,9.067-7.458c3.91-19.763,13.546-37.777,27.866-52.097 c3.614-3.614,3.614-9.473,0-13.085C180.415,412.533,174.556,412.535,170.943,416.146z"></path> <path d="M220.262,167.526c1.583-4.86-1.075-10.082-5.934-11.664c-13.078-4.258-26.918-4.256-40.024,0.001 c-4.86,1.578-7.521,6.799-5.94,11.659c1.271,3.911,4.898,6.397,8.798,6.397c0.948,0,1.911-0.147,2.861-0.455 c9.36-3.042,19.243-3.044,28.577-0.004C213.462,175.043,218.681,172.384,220.262,167.526z"></path> <path d="M343.636,167.526c1.583-4.86-1.075-10.082-5.934-11.664c-13.078-4.258-26.918-4.256-40.024,0.001 c-4.86,1.578-7.521,6.799-5.94,11.659c1.271,3.911,4.898,6.397,8.798,6.397c0.948,0,1.911-0.147,2.861-0.455 c9.362-3.042,19.244-3.044,28.577-0.004C336.832,175.043,342.054,172.384,343.636,167.526z"></path> </g></symbol>

    <!-- avatar-1 -->
    <symbol id="avatar-1" viewBox="0 0 511.993 511.993" xml:space="preserve" fill="#000000"><g id="SVGRepo_bgCarrier" stroke-width="0"></g><g id="SVGRepo_tracerCarrier" stroke-linecap="round" stroke-linejoin="round"></g><g id="SVGRepo_iconCarrier"> <path style="fill:#C98A2E;" d="M184.034,379.595c-32.041,18.717-56.133,49.548-66.013,86.21 c39.24,22.931,84.689,36.394,133.22,37.223l4.763,0.04l57.161-59.543l-61.924-63.93H184.034z"></path> <path style="fill:#AD712C;" d="M327.977,379.595h-71.971v123.473c50.32,0,97.462-13.583,137.983-37.263 C384.11,429.143,360.018,398.312,327.977,379.595z"></path> <path style="fill:#915729;" d="M318.488,389.701l-18.818-18.818h-43.665H212.34l-18.818,18.818c-5.684,5.684-5.684,14.9,0,20.584 l18.818,18.818l43.665,72.774l43.665-72.774l18.818-18.818C324.172,404.601,324.172,395.385,318.488,389.701z"></path> <path style="fill:#AB5034;" d="M157.184,399.866c-18.527,17.747-32.289,40.428-39.162,65.939 c10.524,6.15,21.497,11.612,32.855,16.339l28.915-54.421C173.439,417.503,165.83,408.147,157.184,399.866z"></path> <path style="fill:#8D472E;" d="M363.182,408.57c-2.663-3.018-5.451-5.921-8.356-8.704c-8.646,8.281-16.254,17.637-22.606,27.855 l28.915,54.421c0.684-0.285,1.367-0.569,2.047-0.86c10.628-4.526,20.916-9.699,30.806-15.479 C388.192,444.294,377.498,424.796,363.182,408.57z"></path> <path style="fill:#915729;" d="M332.22,492.31c9.879-2.858,19.529-6.26,28.915-10.166c-4.156-20.992-14.44-39.782-28.915-54.421 V492.31z"></path> <g> <path style="fill:#D5A150;" d="M150.876,482.143c9.386,3.907,19.035,7.308,28.915,10.166v-64.588 C165.316,442.362,155.032,461.15,150.876,482.143z"></path> <polygon style="fill:#D5A150;" points="208.371,384.247 255.873,431.616 303.639,383.982 "></polygon> <path style="fill:#D5A150;" d="M494.141,227.205c-0.972-27.187-22.637-49.621-49.778-51.493 c-10.135-0.699-19.709,1.443-28.036,5.68c-8.694-32.89-25.821-64.251-48.689-89.159c-29.553-32.189-68.696-53.6-111.632-53.6 c-70.309,0-130.447,57.41-154.955,125.55c-2.039,5.667-3.832,11.407-5.362,17.196l4.399,134.967 c4.465,18.199,10.347,33.638,17.72,40.769c27.155,26.268,91.953,38.775,138.489,38.775s110.752-12.508,137.908-38.775 c12.252-11.85,20.396-46.63,24.739-78.923c6.621,2.928,13.94,4.567,21.645,4.567C470.836,282.76,495.232,257.697,494.141,227.205z"></path> </g> <path style="fill:#E1B872;" d="M358.946,185.301c-13.929-13.85-29.768-29.642-29.768-29.642c-1.664-1.636-4.613-1.879-6.97-0.536 c-10.29,5.858-21.384,10.329-32.975,13.29c-10.888,2.782-22.068,4.192-33.228,4.192c-23.223,0-46.115-6.045-66.201-17.482 c-2.359-1.342-5.309-1.102-7.011,0.572l-0.618,0.613l-47.059,47.06c-1.439,1.439-2.981,2.743-4.619,3.906 c-4.282,3.041-10.278,1.199-12.018-3.757l0,0c-5.181-9.484-13.145-17.229-22.793-22.139c-0.001,0.005-0.002,0.01-0.004,0.014 c-8.328-4.237-17.901-6.379-28.036-5.68c-27.141,1.872-48.805,24.305-49.778,51.493c-1.091,30.492,23.305,55.553,53.553,55.553 c7.705,0,15.024-1.639,21.645-4.567c1.73,12.86,4.064,26.109,7.019,38.153c31.889,17.525,82.311,25.956,120.484,25.956 c46.536,0,110.752-12.508,137.908-38.775c11.493-11.117,19.373-42.412,23.89-72.903c0.412-2.779,0.604-5.561,0.629-8.33 C381.419,211.942,373.485,199.758,358.946,185.301z"></path> <circle style="fill:#C98A2E;" cx="440.586" cy="229.167" r="17.863"></circle> <circle style="fill:#D5A150;" cx="71.422" cy="229.167" r="17.863"></circle> <path style="fill:#6D5B4D;" d="M134.213,50.543v30.669l-55.341,46.19c-5.06,11.685-7.449,24.342-7.449,37.057v11.124 c8.735,0,16.974,2.103,24.261,5.811l9.441,4.788c3.675,1.865,8.132,1.154,11.046-1.76c0,0,35.314-35.314,47.085-47.085 c0.248-0.248,0.495-0.493,0.743-0.738c10.414-10.251,26.363-11.991,39.062-4.761l52.943-81.296H134.213V50.543z"></path> <path style="fill:#827061;" d="M134.213,50.543v30.669c-30.784,8.055-46.952,26.872-55.341,46.19 c-0.609,1.404-1.177,2.822-1.706,4.253c-2.988,8.073,1.787,17.057,10.225,18.761c2.225,0.449,4.43,0.992,6.608,1.626 c8.003,2.33,16.637,0.027,22.531-5.866l28.615-28.611c11.069-10.895,25.781-16.868,41.475-16.868 c10.918,0,21.691,2.994,31.038,8.643c0.026-0.006,0.04-0.01,0.067-0.015l38.281-58.782H134.213V50.543z"></path> <path style="fill:#625143;" d="M357.628,30.959c-48.529-20.69-141.69-39.798-214.188,6.439 c-31.878,20.326-9.226,43.814-9.226,43.814l68.849,50.628c15.618,8.892,33.687,13.972,52.943,13.972s37.326-5.08,52.943-13.972 c12.699-7.23,28.648-5.49,39.062,4.761c0.249,0.245,0.497,0.491,0.744,0.738c11.772,11.772,47.085,47.085,47.085,47.085 c2.914,2.914,7.371,3.624,11.046,1.76l9.42-4.779c7.292-3.714,15.538-5.821,24.282-5.821c0-12.809,0-23.271,0-24.8 C440.588,147.06,439.999,66.085,357.628,30.959z"></path> <path style="fill:#827061;" d="M182.42,18.993c-13.384,4.413-26.489,10.439-38.98,18.405c-1.3,0.829-2.5,1.664-3.624,2.501 l82.56,61.797c10.278,5.495,21.864,8.39,33.631,8.39c12.394,0,24.59-3.213,35.267-9.292c0.653-0.372,1.31-0.731,1.972-1.081 c16.637-8.769,21.108-30.716,8.455-44.631C266.562,16.44,218.574,13.649,182.42,18.993z"></path> <path d="M333.411,211.308h-35.726c-4.933,0-8.931,3.999-8.931,8.931c0,4.933,3.999,8.931,8.931,8.931 c0,9.865,7.998,17.863,17.863,17.863c9.865,0,17.863-7.998,17.863-17.863c4.933,0,8.931-3.999,8.931-8.931 C342.342,215.307,338.344,211.308,333.411,211.308z"></path> <path d="M214.325,211.308h-35.726c-4.933,0-8.931,3.999-8.931,8.931c0,4.933,3.999,8.931,8.931,8.931 c0,9.865,7.998,17.863,17.863,17.863c9.865,0,17.863-7.998,17.863-17.863c4.933,0,8.931-3.999,8.931-8.931 C223.256,215.307,219.259,211.308,214.325,211.308z"></path> <path d="M273.868,238.102h-35.726c-4.933,0-8.931,3.999-8.931,8.931c0,4.933,3.999,8.931,8.931,8.931h35.726 c4.934,0,8.931-3.999,8.931-8.931C282.799,242.101,278.801,238.102,273.868,238.102z"></path> <path d="M333.411,175.583h-35.726c-4.934,0-8.931,3.999-8.931,8.931c0,4.933,3.998,8.931,8.931,8.931h35.726 c4.934,0,8.931-3.999,8.931-8.931C342.342,179.581,338.344,175.583,333.411,175.583z"></path> <path d="M214.325,175.583h-35.726c-4.933,0-8.931,3.999-8.931,8.931c0,4.933,3.999,8.931,8.931,8.931h35.726 c4.933,0,8.931-3.999,8.931-8.931C223.256,179.581,219.259,175.583,214.325,175.583z"></path> <path d="M449.519,167.299v-16.515c0-4.086-0.544-25.774-11.276-51.568c-14.425-34.668-41.089-61.111-77.113-76.473 c-58.428-24.909-151.757-37.989-222.493,7.125c-12.584,8.024-19.631,17.716-20.945,28.808c-0.805,6.794,0.717,12.817,2.812,17.581 c-22.985,8.885-40.084,25.159-49.83,47.598c-0.668,1.545-1.303,3.126-1.871,4.663c-0.024,0.063-0.046,0.126-0.069,0.192 c-1.826,4.941-3.272,10.119-4.3,15.391c-0.944,4.841,2.215,9.532,7.057,10.476c4.846,0.949,9.532-2.215,10.476-7.057 c0.853-4.372,2.052-8.655,3.564-12.731c0.02-0.054,0.039-0.108,0.058-0.162c0.458-1.233,0.955-2.469,1.474-3.667 c9.161-21.095,25.786-34.925,49.41-41.107c3.069-0.803,5.505-3.147,6.363-6.2c0.857-3.053,0.056-6.307-2.145-8.59 c-0.062-0.067-6.216-6.765-5.247-14.394c0.695-5.474,5-10.77,12.798-15.742c64.875-41.375,151.455-28.958,205.883-5.754 c76.651,32.687,77.532,108.402,77.532,111.609v24.8c0,4.933,3.999,8.931,8.931,8.931c0.002,0,0.005,0,0.007,0 c24.621,0.005,44.65,20.035,44.65,44.657c0,24.624-20.033,44.657-44.657,44.657c-4.058,0-8.035-0.547-11.886-1.614 c1.866-15.686,2.954-31.362,2.954-43.043c0-4.925,4.006-8.931,8.931-8.931c4.925,0,8.931,4.006,8.931,8.931 c0,4.933,3.999,8.931,8.931,8.931s8.931-3.999,8.931-8.931c0-14.775-12.019-26.794-26.794-26.794s-26.794,12.019-26.794,26.794 c0,12.716-1.384,30.597-3.702,47.831c-4.99,37.099-13.457,65.337-22.098,73.694c-23.155,22.399-77.185,34.232-120.461,36.025 c-4.929,0.204-8.758,4.366-8.554,9.293c0.199,4.803,4.155,8.561,8.917,8.561c0.124,0,0.25-0.002,0.376-0.007 c0.729-0.03,1.475-0.07,2.214-0.106l-14.582,14.542l-29.32-29.238c-0.486-0.485-1.017-0.894-1.576-1.244 c-1.383-2.141-3.664-3.68-6.391-4.022c-42.92-5.382-78.286-18.018-94.604-33.804c-8.64-8.357-17.107-36.595-22.098-73.694 c-2.319-17.234-3.702-35.115-3.702-47.831c0-14.775-12.019-26.794-26.794-26.794s-26.794,12.019-26.794,26.794 c0,4.933,3.999,8.931,8.931,8.931s8.931-3.999,8.931-8.931c0-4.925,4.006-8.931,8.931-8.931c4.925,0,8.931,4.006,8.931,8.931 c0,11.681,1.088,27.358,2.955,43.043c-3.851,1.067-7.827,1.614-11.886,1.614c-24.625,0-44.657-20.033-44.657-44.657 s20.033-44.657,44.657-44.657c7.099,0,13.898,1.629,20.21,4.84c0.007,0.004,0.015,0.006,0.023,0.01 c0.026,0.013,0.05,0.026,0.076,0.039l9.353,4.744c2.659,1.349,5.522,2.005,8.36,2.005c4.78,0,9.49-1.862,13.043-5.415l47.084-47.085 l0.694-0.688c7.398-7.282,19.066-8.666,28.378-3.364c17.397,9.906,37.233,15.142,57.362,15.142s39.965-5.235,57.362-15.142 c9.311-5.299,20.98-3.917,28.38,3.367l47.777,47.772c5.66,5.66,14.263,7.03,21.402,3.408l9.441-4.788 c4.399-2.232,6.156-7.606,3.924-12.006c-2.232-4.399-7.606-6.157-12.006-3.924l-9.44,4.788c-0.231,0.117-0.509,0.074-0.692-0.11 l-47.085-47.085l-0.794-0.788c-13.066-12.861-33.523-15.392-49.747-6.157c-14.709,8.375-31.489,12.802-48.525,12.802 s-33.816-4.426-48.525-12.802c-16.224-9.236-36.68-6.706-49.744,6.154l-47.881,47.875c-0.183,0.182-0.463,0.225-0.692,0.111 l-9.423-4.78c-0.002-0.001-0.006-0.004-0.008-0.005c-0.005-0.002-0.011-0.005-0.015-0.007l-0.019-0.01 c-0.038-0.019-0.077-0.039-0.118-0.058c-0.021-0.011-0.043-0.018-0.064-0.027c-8.784-4.428-18.233-6.68-28.093-6.68 c-34.474,0-62.52,28.046-62.52,62.52s28.046,62.52,62.52,62.52c4.878,0,9.673-0.555,14.345-1.659 c4.447,28.209,12.309,60.425,25.828,73.502c11.499,11.123,27.871,19.222,44.651,25.092c-22.602,19.735-39.037,45.857-46.851,74.854 c-1.284,4.762,1.537,9.664,6.301,10.948c0.778,0.21,1.56,0.31,2.329,0.31c3.938,0,7.545-2.626,8.618-6.61 c5.588-20.735,16.188-39.798,30.626-55.558c4.459,4.673,8.306,9.245,11.582,13.798c-13.551,15.369-22.755,33.906-26.741,54.047 c-0.957,4.838,2.189,9.538,7.027,10.495c0.586,0.116,1.168,0.172,1.743,0.172c4.178,0,7.91-2.946,8.752-7.2 c3.774-19.074,13.076-36.463,26.898-50.285c0.056-0.056,0.102-0.116,0.156-0.173c0.133-0.141,0.266-0.282,0.388-0.43 c0.075-0.089,0.144-0.182,0.214-0.275c0.106-0.137,0.211-0.275,0.307-0.418c0.079-0.114,0.15-0.232,0.222-0.35 c0.076-0.125,0.152-0.249,0.223-0.377c0.076-0.138,0.145-0.28,0.213-0.422c0.055-0.114,0.11-0.229,0.16-0.345 c0.065-0.154,0.125-0.308,0.181-0.464c0.042-0.113,0.082-0.226,0.119-0.341c0.05-0.157,0.093-0.314,0.135-0.474 c0.031-0.121,0.062-0.242,0.089-0.364c0.032-0.151,0.058-0.302,0.083-0.455c0.021-0.135,0.043-0.27,0.058-0.406 c0.017-0.141,0.026-0.28,0.036-0.42c0.011-0.15,0.019-0.3,0.021-0.451c0.002-0.129,0-0.256-0.004-0.385 c-0.004-0.161-0.011-0.322-0.023-0.482c-0.01-0.124-0.025-0.245-0.039-0.368c-0.019-0.162-0.042-0.323-0.07-0.485 c-0.023-0.127-0.051-0.255-0.08-0.381c-0.033-0.151-0.068-0.301-0.11-0.45c-0.039-0.143-0.087-0.283-0.133-0.424 c-0.043-0.13-0.086-0.258-0.136-0.387c-0.062-0.162-0.133-0.32-0.205-0.479c-0.048-0.105-0.094-0.211-0.146-0.316 c-0.086-0.172-0.182-0.338-0.28-0.505c-0.039-0.068-0.071-0.138-0.113-0.205c-0.029-0.046-0.061-0.092-0.089-0.138 c-0.021-0.033-0.043-0.067-0.064-0.1c-4.626-7.401-10.383-14.677-17.463-22.096c2.227-1.862,4.512-3.661,6.865-5.382 c14.2,3.602,27.293,5.758,36.397,6.986c0.166,0.197,0.336,0.391,0.522,0.575l33.001,32.909v34.175l-23.867-23.867 c-1.161-1.161-1.161-3.05,0-4.211l3.488-3.488c3.488-3.488,3.488-9.143,0-12.63c-3.488-3.488-9.143-3.488-12.63,0l-3.488,3.488 c-8.125,8.125-8.125,21.347,0,29.472l36.497,36.497v8.309c0,4.933,3.999,8.931,8.931,8.931c4.933,0,8.931-3.999,8.931-8.931v-8.11 l36.696-36.696c8.125-8.125,8.125-21.347,0-29.472l-3.488-3.488c-3.488-3.488-9.143-3.488-12.63,0c-3.488,3.488-3.488,9.143,0,12.63 l3.488,3.488c1.161,1.161,1.161,3.05,0,4.211l-24.066,24.066v-34.374l33.2-33.108c0.089-0.089,0.168-0.187,0.252-0.279 c12.104-1.599,24.619-3.9,36.772-6.99c2.319,1.698,4.587,3.452,6.783,5.287c-7.205,7.546-12.854,14.682-17.49,22.101 c-0.02,0.03-0.038,0.06-0.058,0.09c-0.03,0.048-0.063,0.095-0.093,0.144c-0.043,0.069-0.076,0.141-0.117,0.21 c-0.096,0.164-0.191,0.329-0.275,0.498c-0.054,0.107-0.101,0.214-0.15,0.323c-0.07,0.156-0.141,0.312-0.201,0.47 c-0.051,0.131-0.094,0.263-0.138,0.395c-0.045,0.138-0.092,0.275-0.131,0.416c-0.043,0.152-0.077,0.306-0.112,0.458 c-0.027,0.124-0.056,0.248-0.077,0.373c-0.029,0.163-0.051,0.326-0.07,0.491c-0.014,0.121-0.03,0.242-0.039,0.363 c-0.013,0.163-0.019,0.325-0.024,0.488c-0.004,0.126-0.006,0.252-0.004,0.379c0.002,0.154,0.011,0.305,0.021,0.458 c0.01,0.138,0.02,0.276,0.036,0.414c0.016,0.138,0.037,0.274,0.06,0.411c0.025,0.151,0.051,0.301,0.083,0.451 c0.026,0.124,0.058,0.245,0.089,0.367c0.04,0.158,0.085,0.316,0.135,0.472c0.037,0.115,0.079,0.229,0.12,0.343 c0.057,0.156,0.116,0.31,0.181,0.463c0.05,0.117,0.105,0.23,0.16,0.344c0.068,0.142,0.137,0.283,0.214,0.422 c0.069,0.127,0.145,0.25,0.221,0.375c0.073,0.119,0.145,0.237,0.224,0.354c0.095,0.141,0.199,0.276,0.302,0.412 c0.073,0.094,0.143,0.189,0.22,0.282c0.12,0.145,0.25,0.283,0.381,0.422c0.056,0.058,0.104,0.121,0.162,0.179 c13.822,13.822,23.124,31.211,26.898,50.285c0.842,4.254,4.574,7.2,8.752,7.2c0.575,0,1.159-0.056,1.743-0.171 c4.838-0.957,7.985-5.657,7.027-10.495c-3.986-20.142-13.19-38.679-26.742-54.049c3.252-4.517,7.072-9.046,11.606-13.796 c14.427,15.737,25.001,34.767,30.604,55.558c1.074,3.985,4.68,6.61,8.618,6.61c0.769,0,1.551-0.1,2.329-0.31 c4.763-1.284,7.583-6.185,6.301-10.948c-7.827-29.05-24.196-55.072-46.767-74.789c17.766-6.264,33.588-14.536,44.568-25.157 c13.521-13.077,21.383-45.294,25.828-73.502c4.673,1.103,9.467,1.659,14.345,1.659c34.474,0,62.52-28.046,62.52-62.52 C503.107,197.73,479.776,171.647,449.519,167.299z"></path> </g></symbol>

    <!-- avatar-2 -->
    <symbol id="avatar-2 " viewBox="0 0 511.997 511.997" xml:space="preserve" fill="#000000"><g id="SVGRepo_bgCarrier" stroke-width="0"></g><g id="SVGRepo_tracerCarrier" stroke-linecap="round" stroke-linejoin="round"></g><g id="SVGRepo_iconCarrier"> <path style="fill:#E8E4CD;" d="M321.606,400.53l-139.391-26.877c-1.943,1.147-3.854,2.343-5.739,3.575 c-7.88,5.156-15.234,11.043-21.973,17.563l23.897,95.655c25.102,7.127,51.611,10.889,79.013,10.752 c21.186-0.106,41.816-2.533,61.652-7.037c5.821-1.321,11.571-2.828,17.25-4.502c8.192-2.414,16.229-5.19,24.092-8.305 c1.948-0.771,3.884-1.563,5.811-2.376c0.707-0.299,1.413-0.597,2.117-0.901c10.988-4.744,21.619-10.156,31.835-16.195 L321.606,400.53z"></path> <path style="fill:#C1BDAB;" d="M389.7,434.684c-10.31-20.466-25.225-38.205-43.381-51.863c-2.888-2.173-5.858-4.24-8.904-6.201 c-1.994-1.283-4.02-2.521-6.077-3.709l-149.123,0.743c-2.046,1.209-4.059,2.466-6.04,3.769 c18.309,24.703,47.72,40.666,80.824,40.501c16.269-0.081,31.606-4.052,45.145-11.017c4.839-2.49,10.658-2.095,15.234,0.849 c0.094,0.06,0.188,0.121,0.281,0.181c11.422,7.397,18.349,20.052,18.417,33.66l0.239,48.065c10.22-3.012,20.199-6.586,29.902-10.682 l0,0l0,0c4.381-1.849,8.705-3.805,12.971-5.863c0.027-0.014,0.056-0.026,0.083-0.039c1.34-0.646,2.673-1.305,4.001-1.973 c0.101-0.051,0.202-0.1,0.303-0.151c1.246-0.628,2.486-1.268,3.722-1.914c0.174-0.091,0.35-0.18,0.526-0.271 c1.154-0.606,2.3-1.224,3.445-1.844c0.247-0.134,0.496-0.265,0.743-0.4c1.092-0.597,2.176-1.205,3.258-1.816 c0.286-0.162,0.575-0.318,0.86-0.481c1.326-0.754,2.645-1.52,3.958-2.295c0.027-0.016,0.056-0.032,0.083-0.048 C397.565,452.401,394.041,443.3,389.7,434.684z"></path> <path style="fill:#DFB296;" d="M154.503,394.793c-19.102,18.481-33.242,42.051-40.232,68.514 c10.935,6.317,22.331,11.919,34.121,16.757l29.675-56.53C171.434,412.981,163.502,403.33,154.503,394.793z"></path> <path style="fill:#D5D2BD;" d="M148.392,480.065c9.744,3.999,19.758,7.473,30.008,10.383l-0.333-66.913 C163.147,438.777,152.59,458.295,148.392,480.065z"></path> <g> <path style="fill:#CE9276;" d="M367.96,402.748c-2.773-3.113-5.678-6.107-8.702-8.974c-8.914,8.625-16.748,18.355-23.276,28.975 c15.071,15.092,25.822,34.504,30.236,56.231c0.707-0.299,1.413-0.597,2.117-0.901c10.988-4.744,21.619-10.156,31.835-16.195 C394.056,439.63,382.876,419.485,367.96,402.748z"></path> <path style="fill:#CE9276;" d="M446.95,160.975c-9.049,0.046-17.575,2.266-25.104,6.145 c-16.937-62.801-63.595-120.05-122.313-139.782L166.062,364.921c26.434,16.159,57.539,25.41,90.798,25.243 c78.282-0.39,144.127-52.801,164.971-124.307c7.691,3.965,16.419,6.197,25.67,6.151c30.661-0.153,55.393-25.132,55.24-55.794 S477.611,160.822,446.95,160.975z"></path> </g> <path style="fill:#DFB296;" d="M391.617,198.263c-0.328-65.918-37.605-134.804-92.083-170.924 c-14.216-4.777-29.137-7.365-44.517-7.289C176.114,20.442,109.92,90.563,89.66,168.776c-7.568-3.804-16.114-5.94-25.164-5.895 c-30.661,0.153-55.393,25.132-55.24,55.794c0.153,30.662,25.132,55.393,55.794,55.24c9.252-0.046,17.957-2.365,25.609-6.407 c12.398,41.003,39.62,75.539,75.403,97.413c18.309,4.578,36.516,7.009,53.695,6.922 C315.148,371.368,392.092,293.654,391.617,198.263z"></path> <path style="opacity:0.2;fill:#5B341A;enable-background:new ;" d="M99.466,173.687c3.817,1.912,8.431,1.154,11.435-1.88 c0,0,36.403-36.768,48.536-49.022c0.254-0.258,0.511-0.513,0.766-0.769c10.736-10.673,27.25-12.558,40.443-5.134 c16.226,9.131,34.971,14.301,54.921,14.202c19.949-0.1,38.643-5.456,54.778-14.748c13.118-7.555,29.65-5.836,40.492,4.73 c0.259,0.253,0.517,0.506,0.774,0.761c12.256,12.134,49.022,48.536,49.022,48.536c3.034,3.004,7.655,3.716,11.453,1.765l9.756-5.01 l0,0C400.808,89.115,333.919,19.656,255.017,20.05C176.114,20.442,109.92,90.563,89.66,168.776c-1.014-0.51-2.048-0.983-3.097-1.432 c1.055,0.452,2.097,0.929,3.118,1.443L99.466,173.687z"></path> <path d="M239.109,194.157c-2.862,0.015-5.694-1.297-7.516-3.783c-5.715-7.794-13.957-13.718-23.214-16.68 c-4.867-1.558-7.549-6.766-5.992-11.633c1.558-4.87,6.771-7.549,11.634-5.992c13.136,4.205,24.372,12.283,32.495,23.362 c3.021,4.121,2.131,9.912-1.991,12.933C242.892,193.565,240.993,194.147,239.109,194.157z"></path> <path d="M272.662,193.992c-1.884,0.01-3.789-0.555-5.436-1.738c-4.152-2.981-5.099-8.762-2.118-12.913 c8.023-11.17,19.18-19.361,32.265-23.685c4.846-1.604,10.085,1.029,11.688,5.882c1.604,4.852-1.03,10.086-5.882,11.69 c-9.347,3.089-17.312,8.936-23.038,16.908C278.34,192.64,275.524,193.978,272.662,193.992z"></path> <g style="opacity:0.2;"> <circle style="fill:#47423F;" cx="254.914" cy="51.338" r="9.253"></circle> <circle style="fill:#47423F;" cx="224.466" cy="93.61" r="9.253"></circle> <circle style="fill:#47423F;" cx="199.643" cy="64.124" r="9.253"></circle> <circle style="fill:#47423F;" cx="162.816" cy="92.678" r="9.253"></circle> <circle style="fill:#47423F;" cx="267.832" cy="115.662" r="9.253"></circle> <circle style="fill:#47423F;" cx="284.98" cy="84.609" r="9.253"></circle> <circle style="fill:#47423F;" cx="310.704" cy="62.34" r="9.253"></circle> <circle style="fill:#47423F;" cx="347.963" cy="102.868" r="9.253"></circle> </g> <circle style="fill:#CE9276;" cx="64.771" cy="218.395" r="18.506"></circle> <circle style="fill:#BD7155;" cx="447.229" cy="216.495" r="18.506"></circle> <path d="M447.229,152.673c-6.503,0-12.835,0.949-18.927,2.818c-11.845-37.461-33.485-72.013-61.637-98.093 c-32.92-30.5-71.189-46.603-110.723-46.603c-0.239,0-0.486,0-0.725,0.001c-83.592,0.418-148.131,71.845-171.149,144.82 c-6.207-1.946-12.661-2.942-19.297-2.942C29.057,152.673,0,181.729,0,217.444s29.057,64.771,64.771,64.771 c6.774,0,13.532-1.078,19.962-3.158c14.483,40.328,42.549,73.751,78.594,95.068c-28.719,21.049-49.945,51.675-59.212,86.067 c-1.33,4.935,1.592,10.013,6.526,11.342c0.806,0.217,1.616,0.321,2.413,0.321c4.08,0,7.816-2.72,8.927-6.847 c8.995-33.376,30.766-62.737,60.063-81.253c11.118,4.937,22.813,8.815,34.968,11.469c0.666,0.146,1.329,0.215,1.983,0.215 c4.255,0,8.087-2.954,9.031-7.28c1.091-4.993-2.074-9.923-7.066-11.014c-12.371-2.702-24.215-6.804-35.367-12.119 c-0.134-0.068-0.273-0.13-0.411-0.19c-41.044-19.7-72.61-56.012-85.904-100.784l-0.833-2.804c-0.036-0.162-0.063-0.324-0.107-0.486 c-3.853-14.068-5.808-28.641-5.808-43.316c0-15.307-12.453-27.759-27.759-27.759s-27.759,12.453-27.759,27.759 c0,5.11,4.142,9.253,9.253,9.253s9.253-4.143,9.253-9.253c0-5.103,4.15-9.253,9.253-9.253s9.253,4.15,9.253,9.253 c0,14.833,1.815,29.571,5.363,43.888c-4.682,1.568-9.57,2.377-14.616,2.377c-25.511,0-46.265-20.754-46.265-46.265 s20.754-46.265,46.265-46.265c7.354,0,14.399,1.687,20.94,5.014c4.55,2.316,10.125,0.505,12.442-4.052 c0.258-0.508,0.458-1.029,0.616-1.557c0.299-0.575,0.544-1.188,0.72-1.839c18.761-69.002,78.308-139.056,155.818-139.442 c0.21-0.001,0.416-0.001,0.624-0.001c77.155,0,138.213,71.386,156.926,139.153c0.068,1.247,0.385,2.502,0.988,3.688 c2.317,4.555,7.891,6.37,12.442,4.052c6.541-3.327,13.586-5.014,20.94-5.014c25.511,0,46.265,20.754,46.265,46.265 s-20.754,46.265-46.265,46.265c-5.045,0-9.934-0.809-14.616-2.377c3.547-14.316,5.363-29.054,5.363-43.888 c0-5.103,4.15-9.253,9.253-9.253s9.253,4.15,9.253,9.253c0,5.11,4.142,9.253,9.253,9.253c5.111,0,9.253-4.143,9.253-9.253 c0-15.307-12.453-27.759-27.759-27.759s-27.759,12.452-27.759,27.759c0,14.675-1.955,29.248-5.811,43.314 c-0.044,0.162-0.072,0.324-0.107,0.486l-0.833,2.804c-13.295,44.777-44.867,81.092-85.92,100.791 c-0.13,0.058-0.258,0.115-0.385,0.179c-11.157,5.317-23.003,9.422-35.377,12.124c-4.992,1.091-8.155,6.021-7.066,11.014 c0.945,4.328,4.776,7.28,9.031,7.28c0.653,0,1.318-0.07,1.983-0.215c12.156-2.655,23.849-6.531,34.968-11.469 c29.298,18.517,51.068,47.876,60.063,81.253c1.112,4.128,4.849,6.847,8.927,6.847c0.797,0,1.608-0.104,2.413-0.321 c4.935-1.33,7.856-6.408,6.526-11.342c-9.267-34.39-30.494-65.018-59.212-86.067c36.045-21.315,64.111-54.74,78.594-95.068 c6.43,2.08,13.186,3.158,19.962,3.158c35.714,0,64.771-29.056,64.771-64.771S482.943,152.673,447.229,152.673z"></path> <path d="M341.057,416.146c-3.615-3.614-9.474-3.614-13.085,0c-3.615,3.614-3.615,9.471-0.001,13.085 c14.321,14.321,23.958,32.336,27.868,52.096c0.872,4.407,4.739,7.459,9.068,7.459c0.595,0,1.2-0.058,1.806-0.178 c5.013-0.992,8.272-5.86,7.28-10.873C369.369,454.367,357.979,433.069,341.057,416.146z"></path> <path d="M170.943,416.146c-16.922,16.923-28.311,38.22-32.935,61.589c-0.992,5.013,2.268,9.881,7.28,10.873 c0.607,0.12,1.21,0.178,1.806,0.178c4.328,0,8.196-3.052,9.068-7.459c3.91-19.759,13.545-37.775,27.868-52.096 c3.614-3.614,3.614-9.473-0.001-13.085C180.415,412.532,174.556,412.533,170.943,416.146z"></path> <path d="M274.506,226.697h-37.012c-5.11,0-9.253,4.143-9.253,9.253c0,5.11,4.143,9.253,9.253,9.253h37.012 c5.111,0,9.253-4.143,9.253-9.253C283.759,230.84,279.617,226.697,274.506,226.697z"></path> <circle cx="194.313" cy="217.445" r="18.506"></circle> <circle cx="317.687" cy="217.445" r="18.506"></circle> </g>
  </symbol>

  <!-- avatar-3 -->
  <symbol id="avatar-3" viewBox="0 0 512 512" xml:space="preserve" fill="#000000"><g id="SVGRepo_bgCarrier" stroke-width="0"></g><g id="SVGRepo_tracerCarrier" stroke-linecap="round" stroke-linejoin="round"></g><g id="SVGRepo_iconCarrier"> <path style="fill:#8D472E;" d="M256.112,287.09c-7.244,0.055-14.075-2.714-19.236-7.797c-3.557-3.504-3.6-9.226-0.096-12.784 c3.502-3.555,9.226-3.599,12.783-0.096c1.72,1.695,3.997,2.618,6.411,2.599c2.414-0.018,4.678-0.976,6.371-2.696 c3.504-3.557,9.227-3.601,12.783-0.098c3.558,3.504,3.601,9.226,0.099,12.784C270.144,284.161,263.354,287.034,256.112,287.09z"></path> <path style="fill:#658577;" d="M458.876,360.231c-10.221-41.106-16.06-85.067-16.06-126.645l0,0H256.002l-84.368,98.831 l84.368,106.062c61.52,0,123.04-12.026,181.438-36.078C454.043,395.561,463.209,377.656,458.876,360.231z"></path> <path style="fill:#6F9A8A;" d="M69.189,233.585L69.189,233.585c0,41.579-5.839,85.539-16.06,126.645 c-4.333,17.426,4.833,35.331,21.435,42.169c58.398,24.052,119.918,36.078,181.438,36.078V233.585H69.189z"></path> <path style="fill:#B7CC8C;" d="M347.063,408.906c-6.373-7.339-13.616-13.898-21.569-19.517 c-19.881-14.046-44.187-22.224-70.385-22.024c-26.199,0.2-50.377,8.748-70.041,23.095c-7.867,5.739-15.009,12.409-21.269,19.844 c-17.174,20.396-27.7,46.555-28.269,75.124c11.649,5.521,23.748,10.24,36.217,14.116c3.525,1.096,7.081,2.121,10.665,3.078 c0.47,0.125,0.942,0.248,1.414,0.371c23.103,6.038,47.366,9.188,72.386,8.997c25.02-0.19,49.232-3.71,72.24-10.1 c0.47-0.13,0.94-0.259,1.408-0.393c3.569-1.011,7.109-2.092,10.617-3.241c6.109-2.002,12.114-4.232,18.028-6.635 c3.61-1.467,7.194-2.984,10.725-4.599c2.432-1.112,4.849-2.253,7.244-3.433C375.471,455.033,364.545,429.038,347.063,408.906z"></path> <path style="opacity:0.3;fill:#4D5B59;enable-background:new ;" d="M286.538,444.269c-4.012-0.036-7.893,0.488-11.572,1.498 c-12.611,3.461-25.854,3.563-38.516,0.294c-3.694-0.953-7.582-1.419-11.593-1.322c-22.819,0.55-41.317,20.535-41.144,43.36 l0.002,0.339l0.111,14.556c23.103,6.038,47.366,9.188,72.386,8.997c25.02-0.19,49.232-3.71,72.24-10.1l-0.111-14.556l-0.002-0.339 C328.164,464.171,309.363,444.471,286.538,444.269z"></path> <path style="fill:#84B3C8;" d="M163.798,410.304c-17.174,20.396-27.7,46.555-28.269,75.124c11.649,5.521,23.748,10.24,36.217,14.116 c3.525,1.096,7.081,2.121,10.665,3.078c0.47,0.125,0.943,0.248,1.414,0.371l-0.157-20.582 C183.468,456.093,176.246,431.47,163.798,410.304z"></path> <path style="fill:#5C889F;" d="M347.063,408.906c-3.299,5.809-6.2,11.872-8.68,18.145c-6.638,16.786-10.233,35.098-10.087,54.257 l0.157,20.582c0.47-0.13,0.94-0.259,1.408-0.393c3.569-1.011,7.109-2.092,10.617-3.241c6.109-2.002,12.114-4.232,18.028-6.635 c3.61-1.467,7.194-2.984,10.725-4.599c2.432-1.112,4.849-2.253,7.244-3.433C375.471,455.033,364.545,429.038,347.063,408.906z"></path> <path style="opacity:0.3;fill:#4D5B59;enable-background:new ;" d="M347.063,408.906c-0.019-0.022-0.039-0.042-0.058-0.064 c-6.359-7.312-13.582-13.85-21.511-19.453c-19.881-14.046-44.187-22.224-70.385-22.024c-26.199,0.2-50.377,8.748-70.041,23.096 c-7.336,5.353-14.033,11.523-19.981,18.36c21.796,6.348,45.568,10.254,67.757,11.886c8.086,0.595,15.966,0.898,23.452,0.898 c6.246,0,12.765-0.21,19.45-0.628c11.862-0.741,24.254-2.15,36.613-4.251c9.878-1.679,19.923,2.179,25.929,10.2 c0.031,0.042,0.063,0.084,0.094,0.125c12.459,16.819,19.918,37.568,20.089,60.053l0.035,4.517c3.61-1.467,7.194-2.984,10.725-4.599 c2.432-1.112,4.849-2.253,7.244-3.433C375.471,455.033,364.545,429.038,347.063,408.906z"></path> <g> <path style="fill:#F8E5B5;" d="M256.018,177.029c0.322-1.02,0.651-2.037,0.988-3.053 C256.67,174.992,256.34,176.009,256.018,177.029z"></path> <path style="fill:#F8E5B5;" d="M254.747,181.215c0.289-0.987,0.583-1.972,0.887-2.955 C255.33,179.243,255.036,180.228,254.747,181.215z"></path> <path style="fill:#F8E5B5;" d="M257.333,172.992c0.45-1.333,0.91-2.662,1.387-3.987 C258.243,170.33,257.783,171.659,257.333,172.992z"></path> <path style="fill:#F8E5B5;" d="M253.285,186.436c0.358-1.356,0.734-2.707,1.121-4.057 C254.019,183.729,253.643,185.08,253.285,186.436z"></path> </g> <path style="fill:#ECCE93;" d="M497.016,232.803c-0.983-27.516-22.909-50.22-50.378-52.116c-10.259-0.707-19.947,1.461-28.376,5.749 c-0.474-1.79-0.981-3.574-1.505-5.354c-0.209-0.71-0.423-1.417-0.64-2.125c-0.307-1.003-0.623-2.003-0.945-3.003 c-0.563-1.746-1.151-3.486-1.756-5.22c-0.054-0.154-0.107-0.31-0.161-0.464c-0.145-0.41-0.282-0.822-0.429-1.231 c-0.006,0.002-0.012,0.006-0.019,0.01c-9.654-26.857-24.749-52.074-43.822-72.848c-29.911-32.578-69.526-54.248-112.981-54.248 c-71.153,0-132.015,58.094-156.822,127.05c0,0.001-0.001,0.004-0.001,0.005c-0.477,1.325-0.936,2.655-1.387,3.987 c-0.111,0.328-0.217,0.656-0.327,0.983c-0.337,1.016-0.668,2.033-0.988,3.053c-0.129,0.41-0.258,0.82-0.384,1.231 c-0.304,0.983-0.598,1.969-0.887,2.955c-0.113,0.388-0.23,0.775-0.341,1.164c-0.387,1.35-0.763,2.702-1.121,4.057l4.456,136.584 c4.518,18.419,10.472,34.045,17.934,41.262c27.485,26.585,93.065,39.244,140.163,39.244s112.091-12.659,139.575-39.244 c12.4-11.993,20.642-47.194,25.038-79.877c6.701,2.964,14.109,4.622,21.907,4.622C473.43,289.027,498.119,263.662,497.016,232.803z"></path> <path style="fill:#F8E5B5;" d="M336.006,251.84c-4.089,0-8.22-0.183-12.395-0.552c-23.206-2.045-41.934-9.552-51.032-13.845 c-12.631-5.958-20.907-18.818-21.081-32.762c-0.504-40.621-6.951-50.285-13.508-56.702c-0.125-0.121-0.274-0.256-0.421-0.392 c-7.087-6.567-22.016-12.015-38.049-8.445c-22.121,4.921-40.895,24.973-54.295,57.986c-0.043,0.108-0.088,0.216-0.134,0.323 c-5.679,13.502-24.013,15.794-32.983,4.211c-1.081-1.396-2.229-2.738-3.437-4.023c-0.383-0.407-0.765-0.816-1.161-1.211 c-0.039-0.039-0.078-0.075-0.116-0.113c-0.527-0.523-1.064-1.037-1.611-1.538c-0.069-0.063-0.14-0.124-0.209-0.187 c-0.523-0.474-1.053-0.938-1.595-1.391c-0.084-0.071-0.171-0.139-0.256-0.21c-0.533-0.44-1.073-0.873-1.622-1.292 c-0.092-0.07-0.183-0.137-0.275-0.207c-0.551-0.416-1.109-0.822-1.677-1.217c-0.092-0.064-0.184-0.127-0.276-0.19 c-0.575-0.395-1.157-0.78-1.748-1.152c-0.088-0.055-0.176-0.111-0.264-0.165c-0.601-0.376-1.211-0.74-1.828-1.092 c-0.081-0.046-0.162-0.093-0.243-0.139c-0.633-0.357-1.275-0.701-1.924-1.034c-0.061-0.031-0.122-0.064-0.183-0.094 c-8.426-4.275-18.108-6.434-28.358-5.719c-27.457,1.914-49.361,24.617-50.34,52.122c-1.098,30.856,23.59,56.215,54.201,56.215 c7.798,0,15.205-1.658,21.907-4.622c1.751,13.015,4.114,26.425,7.104,38.614c32.274,17.736,83.307,26.27,121.94,26.27 c47.099,0,112.091-12.659,139.575-39.244c9.69-9.373,16.841-32.92,21.603-58.362c0.005-0.028,0.011-0.055,0.016-0.083 c0.677-3.769-3.059-6.807-6.71-5.65C362.269,249.865,349.373,251.84,336.006,251.84z"></path> <circle style="fill:#ECCE93;" cx="69.184" cy="234.794" r="18.079"></circle> <circle style="fill:#E1B872;" cx="442.811" cy="234.794" r="18.079"></circle> <path style="fill:#8BAD9C;" d="M216.574,9.693C132.334,26.623,69.189,96.69,69.189,180.554c9.8,0,18.985,2.613,26.919,7.159 c8.637,4.726,19.296,10.787,23.991-0.783c37.607-92.655,108.587-84.546,135.904-59.232V41.95 C256.002,21.159,236.958,5.596,216.574,9.693z"></path> <path style="fill:#6F9A8A;" d="M295.431,9.693c-20.384-4.097-39.429,11.467-39.429,32.259v85.748 c0.322,0.298,0.642,0.595,0.952,0.898c14.438,14.126,21.127,32.844,21.66,75.749c0.046,3.683,2.204,7.003,5.536,8.574 c15.438,7.283,60.954,24.199,105.551-3.602c4.96-3.091,9.317-7.027,13.282-11.32c9.907-10.723,24.082-17.442,39.832-17.442 C442.816,96.69,379.671,26.623,295.431,9.693z"></path> <path style="fill:#658577;" d="M440.59,153.5c-23.545,0.653-45.82,11.59-60.733,29.784c-22.893,16.382-46.823,15.917-63.872,12.095 c-6.174-1.384-10.642-6.733-11.118-13.042c-2.295-30.449-9.609-54.204-28.948-73.125c-2.902-2.84-6.048-5.46-9.396-7.852 c-6.524-4.663-10.521-12.08-10.521-20.1V41.95c0-18.422-14.955-32.729-32.542-32.902v0.36l-0.991-0.362 c-1.942,0.04-3.912,0.247-5.896,0.646c-4.622,0.929-9.177,2.027-13.665,3.27l12.689,12.689c5.034,5.034,7.863,11.862,7.863,18.983 l0,0c0,19.937-14.023,37.16-33.565,41.111c-0.264,0.053-0.528,0.107-0.792,0.163c-19.407,4.044-37.195,13.464-52.874,27.999 c-6.124,5.677-11.862,12.101-17.198,19.242c-10.505,14.062-27.433,21.516-44.953,20.464c-0.886-0.053-1.774-0.092-2.662-0.117 c-1.466,8.819-2.227,17.856-2.227,27.059c9.8,0,18.985,2.613,26.919,7.159c8.637,4.726,19.296,10.787,23.991-0.783 c38.05-93.744,110.268-84.343,136.856-58.334c14.438,14.126,21.127,32.844,21.66,75.749c0.046,3.683,2.204,7.003,5.536,8.574 c15.438,7.283,60.954,24.199,105.551-3.602c4.96-3.091,9.317-7.027,13.282-11.32c9.907-10.723,24.082-17.442,39.832-17.442 C442.816,171.352,442.055,162.318,440.59,153.5z"></path> <g> <path style="fill:#ECCE93;" d="M169.296,268.597l-12.053,0.092c-4.992,0.039-9.07-3.979-9.108-8.971 c-0.039-4.992,3.977-9.069,8.971-9.108l12.053-0.092c4.992-0.039,9.07,3.979,9.108,8.971 C178.305,264.481,174.289,268.559,169.296,268.597z"></path> <path style="fill:#ECCE93;" d="M354.899,267.18l-12.053,0.092c-4.992,0.039-9.069-3.979-9.108-8.971 c-0.039-4.992,3.977-9.07,8.971-9.108l12.053-0.092c4.992-0.039,9.069,3.979,9.108,8.971 C363.907,263.064,359.891,267.142,354.899,267.18z"></path> </g> <path d="M222.858,225.751c0-4.992-4.047-9.039-9.039-9.039h-36.158c-4.992,0-9.039,4.047-9.039,9.039s4.047,9.039,9.039,9.039 c-4.992,0-9.039,4.047-9.039,9.039c0,4.992,4.047,9.039,9.039,9.039h36.158c4.992,0,9.039-4.047,9.039-9.039 c0-4.992-4.047-9.039-9.039-9.039C218.811,234.79,222.858,230.743,222.858,225.751z"></path> <path d="M178.662,192.859c0.926-0.007,1.867-0.157,2.791-0.466c9.123-3.041,18.775-3.117,27.915-0.218 c4.752,1.509,9.84-1.123,11.35-5.884c1.509-4.758-1.124-9.84-5.884-11.349c-12.807-4.062-26.327-3.958-39.098,0.3 c-4.737,1.579-7.295,6.698-5.717,11.434C171.289,190.485,174.852,192.888,178.662,192.859z"></path> <path d="M236.78,266.509c-3.504,3.557-3.46,9.28,0.096,12.784c5.161,5.083,11.992,7.852,19.236,7.797 c7.244-0.055,14.032-2.929,19.114-8.09c3.502-3.557,3.459-9.28-0.099-12.784c-3.555-3.502-9.279-3.459-12.783,0.098 c-1.693,1.72-3.957,2.678-6.371,2.696c-2.414,0.018-4.692-0.905-6.411-2.599C246.006,262.91,240.282,262.954,236.78,266.509z"></path> <path d="M442.816,316.145c4.993,0,9.039-4.047,9.039-9.039v-9.695c30.622-4.4,54.236-30.799,54.236-62.62 c0-31.893-23.723-58.337-54.447-62.646c-1.937-39.427-17.428-77.518-44.124-108.068C379.443,31.946,340.269,9.485,297.211,0.831 c-12.391-2.489-25.109,0.674-34.885,8.68c-2.357,1.931-4.471,4.086-6.324,6.42c-1.852-2.335-3.966-4.49-6.324-6.42 c-9.776-8.006-22.49-11.169-34.886-8.68c-37.882,7.614-72.243,25.506-99.368,51.741c-27.282,26.387-45.333,59.369-52.203,95.384 c-0.935,4.904,2.282,9.637,7.186,10.572c4.899,0.929,9.637-2.283,10.572-7.186C93.653,84.903,147.576,32.781,218.354,18.555 c7.063-1.417,14.301,0.382,19.869,4.943c5.554,4.549,8.739,11.275,8.739,18.454c0,4.992,4.047,9.039,9.039,9.039 c4.992,0,9.039-4.047,9.039-9.039c0-7.178,3.185-13.905,8.739-18.454c5.567-4.561,12.808-6.364,19.867-4.943 c78.27,15.731,135.844,79.61,139.891,153.659c-6.725,0.987-13.217,3.031-19.378,6.166c-4.449,2.263-6.221,7.706-3.957,12.156 c2.263,4.449,7.705,6.22,12.156,3.957c6.388-3.251,13.27-4.898,20.454-4.898c24.922,0,45.197,20.275,45.197,45.197 c0,21.827-15.553,40.088-36.158,44.287v-8.129c0-4.992-4.046-9.039-9.039-9.039c-4.993,0-9.039,4.047-9.039,9.039v8.127 c-1.005-0.205-2.002-0.447-2.99-0.721c1.889-15.876,2.99-31.741,2.99-43.564c0-4.985,4.054-9.039,9.039-9.039 c4.985,0,9.039,4.054,9.039,9.039c0,4.992,4.047,9.039,9.039,9.039c4.992,0,9.039-4.047,9.039-9.039 c0-14.954-12.165-27.118-27.118-27.118c-14.954,0-27.118,12.165-27.118,27.118c0,12.87-1.401,30.966-3.747,48.409 c-5.05,37.547-13.619,66.127-22.365,74.585c-24.645,23.839-87.068,36.702-133.29,36.702c-46.507,0-109.234-12.862-133.879-36.702 c-8.743-8.458-17.313-37.036-22.365-74.585c-2.347-17.442-3.747-35.539-3.747-48.409c0-14.954-12.165-27.118-27.118-27.118 s-27.118,12.165-27.118,27.118c0,4.992,4.047,9.039,9.039,9.039s9.039-4.047,9.039-9.039c0-4.985,4.054-9.039,9.039-9.039 s9.039,4.054,9.039,9.039c0,11.822,1.102,27.688,2.99,43.564c-0.99,0.274-1.985,0.516-2.99,0.721v-8.127 c0-4.992-4.046-9.039-9.039-9.039s-9.039,4.047-9.039,9.039v8.129c-20.605-4.199-36.158-22.46-36.158-44.287 c0-24.922,20.275-45.197,45.197-45.197c7.184,0,14.066,1.649,20.454,4.898c0.342,0.174,0.692,0.316,1.044,0.444 c0.341,0.256,0.697,0.498,1.082,0.709l0.406,0.223c7.281,3.987,16.343,8.948,25.33,5.747c3.408-1.214,8.078-4.157,10.969-11.284 c19.877-48.972,47.471-64.463,67.12-68.834c24.054-5.351,44.265,3.568,54.263,12.832c0.263,0.243,0.527,0.486,0.775,0.729 c11.592,11.343,18.408,26.335,18.943,69.4c0.088,7.078,4.296,13.608,10.718,16.637c2.456,1.158,5.46,2.466,8.897,3.791 c-0.028,0.286-0.043,0.575-0.043,0.868c0,4.992,4.047,9.039,9.039,9.039c-4.992,0-9.039,4.047-9.039,9.039 c0,4.992,4.047,9.039,9.039,9.039h36.158c4.992,0,9.039-4.047,9.039-9.039c0-4.992-4.047-9.039-9.039-9.039 c1.472,0,2.858-0.359,4.085-0.983c17.41-0.395,36.748-4.785,56.055-16.822c4.236-2.641,5.53-8.216,2.888-12.453 c-2.642-4.236-8.216-5.531-12.453-2.888c-40.232,25.084-81.175,10.523-96.913,3.098c-0.216-0.101-0.351-0.298-0.353-0.511 c-0.534-42.982-7.14-65.232-24.381-82.1c-0.366-0.358-0.746-0.711-1.126-1.063c-17.393-16.118-45.058-22.879-70.478-17.219 c-23.872,5.312-57.12,23.447-79.945,79.683c-0.201,0.498-0.378,0.822-0.505,1.021c-2.262-0.11-7.679-3.075-10.36-4.544l-0.411-0.225 c-0.413-0.227-0.838-0.405-1.268-0.56c-0.416-0.312-0.857-0.6-1.337-0.844c-8.953-4.555-18.592-6.864-28.654-6.864 c-34.891,0-63.276,28.385-63.276,63.276c0,31.821,23.614,58.218,54.236,62.62v9.695c0,4.992,4.046,9.039,9.039,9.039 s9.039-4.047,9.039-9.039v-9.707c1.842-0.264,3.672-0.583,5.48-1.011c4.5,28.55,12.457,61.156,26.141,74.39 c12.307,11.904,31.045,21.112,52.299,27.823c-5.33,5.598-10.117,11.629-14.328,18.014c-23.712-5.682-47.17-13.248-69.814-22.574 c-12.6-5.189-19.373-18.491-16.106-31.629c2.466-9.918,4.713-20.171,6.676-30.476c0.934-4.904-2.284-9.637-7.188-10.571 c-4.904-0.934-9.637,2.285-10.571,7.188c-1.901,9.978-4.074,19.902-6.46,29.497c-5.36,21.556,6.147,44.216,26.766,52.708 c21.928,9.031,44.592,16.483,67.523,22.233c-7.444,15.896-11.66,33.309-12.154,51.276c-0.137,4.99,3.797,9.147,8.787,9.284 c0.084,0.002,0.169,0.004,0.253,0.004c4.876,0,8.896-3.886,9.031-8.791c0.855-31.05,14.618-60.189,37.922-80.649 c24.743,5.708,51.082,8.45,73.812,8.45c22.547,0,48.685-2.729,73.268-8.41c23.275,20.458,37.023,49.585,37.876,80.611 c0.135,4.905,4.154,8.79,9.031,8.79c0.084,0,0.169-0.001,0.253-0.004c4.99-0.137,8.925-4.294,8.787-9.285 c-0.494-17.964-4.711-35.379-12.155-51.276c22.931-5.75,45.596-13.202,67.524-22.234c20.619-8.492,32.126-31.152,26.766-52.708 c-2.385-9.594-4.559-19.518-6.46-29.497c-0.934-4.904-5.67-8.126-10.571-7.188c-4.904,0.934-8.122,5.667-7.188,10.571 c1.963,10.305,4.21,20.558,6.676,30.476c3.266,13.138-3.507,26.441-16.107,31.629c-22.644,9.326-46.102,16.894-69.814,22.576 c-4.204-6.372-8.98-12.392-14.298-17.981c21.216-6.713,39.943-15.932,52.271-27.856c13.684-13.235,21.641-45.842,26.141-74.39 c1.808,0.427,3.639,0.746,5.479,1.011v9.707C433.777,312.098,437.823,316.145,442.816,316.145z"></path> <path d="M337.207,431.035c-4.779-1.456-9.826,1.238-11.28,6.014c-4.412,14.491-6.649,29.57-6.649,44.817 c0,7.117,0.503,14.33,1.497,21.44c0.63,4.52,4.503,7.791,8.941,7.791c0.416,0,0.838-0.029,1.261-0.088 c4.945-0.691,8.393-5.259,7.703-10.202c-0.877-6.284-1.322-12.656-1.322-18.941c0-13.461,1.973-26.769,5.865-39.55 C344.676,437.54,341.983,432.49,337.207,431.035z"></path> <path d="M174.798,431.035c-4.775,1.455-7.469,6.505-6.014,11.28c3.892,12.782,5.865,26.089,5.865,39.55 c0,6.283-0.445,12.655-1.322,18.94c-0.691,4.944,2.758,9.512,7.703,10.202c0.424,0.059,0.845,0.088,1.261,0.088 c4.438,0,8.31-3.27,8.941-7.791c0.993-7.11,1.497-14.323,1.497-21.44c0-15.248-2.237-30.327-6.649-44.817 C184.624,432.276,179.573,429.581,174.798,431.035z"></path> </g></symbol>

  <!-- avatar-4 -->
    <symbol id="avatar-4" viewBox="0 0 512.001 512.001" xml:space="preserve" fill="#000000"><g id="SVGRepo_bgCarrier" stroke-width="0"></g><g id="SVGRepo_tracerCarrier" stroke-linecap="round" stroke-linejoin="round"></g><g id="SVGRepo_iconCarrier"> <path style="fill:#706B63;" d="M39.281,214.011c0,26.887,21.875,48.762,48.762,48.762h48.762h119.196l97.524-120.279L256.001,8.127 C136.501,8.127,39.281,100.485,39.281,214.011z"></path> <path style="fill:#5B5751;" d="M256.001,8.127v254.646h119.196h48.762c26.887,0,48.762-21.875,48.762-48.762 C472.72,100.485,375.5,8.127,256.001,8.127z"></path> <path style="fill:#84B3C8;" d="M399.577,238.392v-24.381c0-73.194-64.408-132.741-143.577-132.741s-143.577,59.547-143.577,132.741 v24.381H63.662v-24.381c0-100.081,86.283-181.503,192.339-181.503s192.339,81.422,192.339,181.503v24.381H399.577z"></path> <path style="fill:#ACB958;" d="M338.385,419.946c-5.679-6.641-12.145-12.588-19.258-17.694 c-17.776-12.764-39.573-20.284-63.128-20.284c-0.181,0-0.361,0.01-0.542,0.011l-43.344,70.423l43.344,59.594 c0.181,0,0.361,0.004,0.542,0.004c22.496,0,44.287-2.998,65.016-8.585c0.423-0.114,0.846-0.226,1.269-0.343 c3.216-0.885,6.405-1.831,9.567-2.841c5.507-1.758,10.921-3.721,16.254-5.842c3.255-1.295,6.489-2.634,9.674-4.061 c2.194-0.983,4.374-1.992,6.535-3.036C363.609,461.611,353.965,438.166,338.385,419.946z"></path> <path style="fill:#BDC772;" d="M192.872,402.252c-7.112,5.107-13.579,11.053-19.258,17.694c-15.58,18.22-25.223,41.665-25.93,67.346 c10.435,5.044,21.28,9.369,32.464,12.939c3.162,1.009,6.352,1.956,9.567,2.841c0.423,0.116,0.845,0.23,1.269,0.343 c20.562,5.543,42.171,8.533,64.474,8.581V381.979C232.113,382.094,210.512,389.586,192.872,402.252z"></path> <path style="opacity:0.3;fill:#636147;enable-background:new ;" d="M283.73,451.324c-3.606-0.06-7.1,0.385-10.414,1.268 c-11.362,3.025-23.268,3.025-34.63,0c-3.315-0.883-6.807-1.327-10.414-1.268c-20.519,0.338-37.287,18.178-37.287,38.701v0.304 v13.087c20.729,5.587,42.521,8.585,65.016,8.585s44.287-2.998,65.016-8.585v-13.088v-0.305 C321.016,469.502,304.249,451.662,283.73,451.324z"></path> <path style="fill:#CED58C;" d="M173.616,419.946c-15.58,18.22-25.223,41.665-25.931,67.346c10.435,5.044,21.28,9.369,32.464,12.939 c3.162,1.009,6.352,1.956,9.567,2.841c0.423,0.116,0.845,0.23,1.269,0.343V484.91C190.985,461.246,184.661,439.061,173.616,419.946z "></path> <path style="fill:#BDC772;" d="M338.385,419.946c-3.005,5.2-5.655,10.631-7.929,16.254c-6.083,15.046-9.44,31.484-9.44,48.71v18.505 c0.423-0.114,0.846-0.226,1.269-0.343c3.216-0.885,6.405-1.831,9.567-2.841c5.507-1.758,10.921-3.721,16.254-5.842 c3.255-1.295,6.489-2.634,9.674-4.061c2.194-0.983,4.374-1.992,6.535-3.036C363.609,461.611,353.965,438.166,338.385,419.946z"></path> <path style="opacity:0.3;fill:#636147;enable-background:new ;" d="M338.385,419.946c-5.679-6.641-12.145-12.588-19.258-17.694 c-17.776-12.764-39.573-20.284-63.128-20.284s-45.351,7.519-63.128,20.284c14.902,18.36,37.64,30.103,63.129,30.103 c14.413,0,27.948-3.755,39.684-10.336c8.411-4.717,19.007-3.268,25.781,3.596c3.252,3.295,6.259,6.834,8.992,10.585 c11.085,15.207,17.65,33.911,17.65,54.128v4.061c3.255-1.295,6.489-2.634,9.674-4.061c2.194-0.983,4.374-1.992,6.535-3.036 C363.609,461.611,353.965,438.166,338.385,419.946z"></path> <g> <circle style="fill:#7B7E4D;" cx="256.271" cy="438.857" r="8.127"></circle> <circle style="fill:#7B7E4D;" cx="255.73" cy="471.365" r="8.127"></circle> <circle style="fill:#7B7E4D;" cx="256.001" cy="503.873" r="8.127"></circle> </g> <path style="fill:#978574;" d="M110.408,219.296c0.001,0,0.002,0.001,0.003,0.001C110.506,218.941,110.457,219.119,110.408,219.296z "></path> <path style="fill:#827061;" d="M423.958,214.011c-7.948,0-15.446,1.914-22.076,5.288l-42.045-43.632l-7.948-7.948 c-52.636-52.637-138.416-52.77-191.217-0.295l-28.442,28.268c-7.118,7.075-11.859,16.284-13.616,26.097v63.814l57.749,106.305 c23.147,14.308,50.425,22.569,79.637,22.569c68.755,0,126.818-45.745,145.438-108.456c6.738,3.516,14.393,5.514,22.519,5.514 c26.931,0,48.762-21.831,48.762-48.762C472.719,235.843,450.889,214.011,423.958,214.011z"></path> <path style="fill:#978574;" d="M361.651,240.76L361.651,240.76c0-3.196-1.206-6.273-3.378-8.617l-7.24-7.815l-27.879-27.878 c-36.842-36.841-96.883-36.934-133.838-0.206l-28.395,28.22l-6.871,7.062c-2.374,2.44-3.703,5.711-3.703,9.114l0,0 c0,8.362-6.124,15.713-14.437,16.615c-9.79,1.062-18.071-6.58-18.071-16.155v-10.824c0-0.119,0-0.237,0.001-0.356 c0.038-4.344-2.503-8.244-6.422-10.118c-0.335-0.159-0.671-0.328-1.009-0.504c-0.099,0.356-0.051,0.178-0.003-0.001 c-6.629-3.372-14.418-5.286-22.365-5.286c-27.526,0-49.724,22.806-48.729,50.554c0.89,24.845,20.774,45.304,45.585,46.87 c9.295,0.586,18.064-1.449,25.665-5.416c10.709,36.068,34.467,66.519,65.8,85.887c16.061,4.101,32.041,6.315,47.129,6.315 c65.265,0,120.897-41.216,142.301-99.038c6.25-16.886,4.696-35.34-2.712-51.75C362.163,245.398,361.651,243.139,361.651,240.76z"></path> <g> <path style="fill:#827061;" d="M177.982,292.571h-10.836c-4.489,0-8.127-3.639-8.127-8.127c0-4.488,3.638-8.127,8.127-8.127h10.836 c4.489,0,8.127,3.639,8.127,8.127C186.108,288.933,182.471,292.571,177.982,292.571z"></path> <path style="fill:#827061;" d="M344.856,292.571H334.02c-4.489,0-8.127-3.639-8.127-8.127c0-4.488,3.638-8.127,8.127-8.127h10.836 c4.489,0,8.127,3.639,8.127,8.127C352.983,288.933,349.345,292.571,344.856,292.571z"></path> </g> <g> <path style="fill:#5B5751;" d="M423.958,214.011c0-86.776-75.197-157.122-167.958-157.122S88.043,127.235,88.043,214.011 c7.948,0,15.446,1.914,22.076,5.288l7.723,3.918v17.543c0,4.45,3.429,8.331,7.877,8.464c4.602,0.139,8.377-3.552,8.377-8.124 v-10.824c0-8.657,3.452-16.955,9.592-23.057l28.442-28.268c46.578-46.292,121.83-46.176,168.265,0.259l27.988,27.988 c6.096,6.096,9.522,14.365,9.522,22.986v10.575c0,4.45,3.429,8.331,7.877,8.464c4.602,0.139,8.377-3.552,8.377-8.124v-17.885 l7.723-3.918C408.513,215.924,416.01,214.011,423.958,214.011z"></path> <circle style="fill:#5B5751;" cx="193.694" cy="121.905" r="8.127"></circle> <circle style="fill:#5B5751;" cx="160.102" cy="144.119" r="8.127"></circle> <circle style="fill:#5B5751;" cx="125.969" cy="175.543" r="8.127"></circle> <circle style="fill:#5B5751;" cx="160.102" cy="111.611" r="8.127"></circle> <circle style="fill:#5B5751;" cx="235.954" cy="79.103" r="8.127"></circle> <circle style="fill:#5B5751;" cx="279.298" cy="111.611" r="8.127"></circle> <circle style="fill:#5B5751;" cx="300.97" cy="89.939" r="8.127"></circle> </g> <circle style="fill:#827061;" cx="88.043" cy="262.772" r="16.254"></circle> <circle style="fill:#6D5B4D;" cx="423.958" cy="262.772" r="16.254"></circle> <path style="fill:#706B63;" d="M256.001,56.889c-72.982,0-135.083,43.551-158.251,104.385l2.193,10.636l0.509,0.335 c4.522,2.976,8.517,6.637,12.251,10.556c6.714,7.047,18.402,7.597,25.699,0.126l16.541-16.934 c27.076-26.911,63.011-41.732,101.187-41.732c5.24,0,10.52,0.284,15.69,0.844c31.351,3.393,61.661-11.813,77.207-38.741l1.344-2.328 C323.475,66.91,290.992,56.889,256.001,56.889z"></path> <path d="M329.009,439.209c-4.295-1.307-8.835,1.114-10.141,5.408c-3.966,13.029-5.978,26.586-5.978,40.293 c0,6.404,0.453,12.89,1.346,19.278c0.568,4.064,4.048,7.002,8.038,7.002c0.375,0,0.754-0.026,1.137-0.079 c4.062-0.568,7.002-4.048,7.002-8.037c0-0.375-0.026-0.754-0.079-1.137c-0.79-5.644-1.19-11.373-1.19-17.027 c0-12.102,1.775-24.065,5.273-35.559c0.241-0.789,0.354-1.584,0.354-2.369C334.772,443.499,332.513,440.277,329.009,439.209z"></path> <path d="M182.992,439.209c-3.504,1.067-5.763,4.289-5.761,7.773c0,0.783,0.114,1.58,0.354,2.369 c3.499,11.494,5.273,23.458,5.273,35.559c0,5.654-0.4,11.382-1.19,17.027c-0.053,0.383-0.079,0.762-0.079,1.137 c0,3.989,2.94,7.469,7.002,8.037c0.383,0.053,0.762,0.079,1.137,0.079c3.989,0,7.47-2.939,8.038-7.002 c0.893-6.388,1.346-12.873,1.346-19.278c0-13.706-2.011-27.263-5.978-40.292C191.827,440.323,187.289,437.9,182.992,439.209z"></path> <circle cx="256.271" cy="438.857" r="8.127"></circle> <circle cx="255.73" cy="471.365" r="8.127"></circle> <circle cx="256.001" cy="503.873" r="8.127"></circle> <path d="M480.847,214.011C480.847,96.005,379.981,0,256.001,0c-56.795,0-111.05,20.284-152.775,57.115 C61.62,93.842,36.273,143.552,31.851,197.088c-0.308,3.731-0.517,7.527-0.619,11.282c-0.122,4.487,3.414,8.223,7.902,8.346 c0.076,0.002,0.152,0.003,0.226,0.003c4.385,0,7.999-3.494,8.119-7.905c0.095-3.459,0.287-6.955,0.57-10.39 c8.437-102.152,99.78-182.171,207.951-182.171c115.018,0,208.593,88.713,208.593,197.757c0,2.763-0.302,5.488-0.848,8.153 c-8.479-8.309-19.538-13.987-31.851-15.714c-4.227-87.622-81.501-157.687-175.893-157.687S84.335,118.827,80.108,206.449 c-27.624,3.874-48.954,27.648-48.954,56.323c0,28.609,21.231,52.342,48.762,56.299v8.716c0,4.488,3.638,8.127,8.127,8.127 c4.489,0,8.127-3.639,8.127-8.127v-8.739c3.193-0.463,6.344-1.19,9.412-2.182c10.434,28.904,29.364,54.715,53.99,73.376 c6.234,4.723,12.74,8.947,19.472,12.664c-24.052,21.245-38.593,51.849-39.483,84.162c-0.124,4.487,3.413,8.224,7.901,8.348 c0.076,0.002,0.152,0.003,0.228,0.003c4.384,0,7.998-3.494,8.119-7.903c0.83-30.14,15.473-58.554,39.383-76.855 c19.09,7.868,39.621,11.941,60.808,11.941s41.719-4.073,60.808-11.942c23.911,18.301,38.553,46.715,39.383,76.855 c0.121,4.41,3.734,7.903,8.119,7.903c0.076,0,0.152-0.001,0.228-0.003c4.487-0.124,8.024-3.861,7.9-8.348 c-0.89-32.313-15.43-62.917-39.483-84.162c6.732-3.717,13.238-7.941,19.472-12.664c24.626-18.661,43.557-44.471,53.99-73.376 c3.068,0.994,6.218,1.72,9.412,2.182v8.739c0,4.488,3.638,8.127,8.127,8.127s8.127-3.639,8.127-8.127v-8.716 c27.531-3.956,48.762-27.69,48.762-56.299c0-8.723-1.979-16.991-5.503-24.386C478.958,230.807,480.847,222.523,480.847,214.011z M432.085,302.589v-7.309c0-4.488-3.638-8.127-8.127-8.127s-8.127,3.639-8.127,8.127v7.301c-1.595-0.324-3.165-0.746-4.71-1.262 c3.115-12.574,4.71-25.519,4.71-38.547c0-4.482,3.645-8.127,8.127-8.127s8.127,3.645,8.127,8.127c0,4.488,3.638,8.127,8.127,8.127 s8.127-3.639,8.127-8.127c0-13.444-10.938-24.381-24.381-24.381s-24.381,10.937-24.381,24.381c0,12.889-1.717,25.689-5.104,38.043 c-0.135,0.493-0.216,0.988-0.257,1.48c-0.037,0.072-0.065,0.146-0.101,0.219c-0.072,0.148-0.144,0.296-0.207,0.451 c-0.075,0.183-0.135,0.368-0.195,0.555c-0.021,0.063-0.047,0.122-0.065,0.185c-0.005,0.02-0.012,0.039-0.018,0.059 c-0.003,0.012-0.008,0.023-0.011,0.035c-17.975,60.385-74.55,102.551-137.619,102.551s-119.644-42.166-137.619-102.551 c-0.003-0.012-0.008-0.023-0.011-0.035c-0.005-0.02-0.012-0.039-0.018-0.059c-0.018-0.062-0.044-0.12-0.064-0.181 c-0.061-0.187-0.122-0.376-0.197-0.56c-0.06-0.146-0.129-0.285-0.196-0.426c-0.038-0.08-0.069-0.163-0.111-0.242 c-0.041-0.492-0.122-0.987-0.257-1.48c-3.386-12.355-5.104-25.155-5.104-38.043c0-13.444-10.938-24.381-24.381-24.381 s-24.381,10.937-24.381,24.381c0,4.488,3.638,8.127,8.127,8.127c4.489,0,8.127-3.639,8.127-8.127c0-4.482,3.645-8.127,8.127-8.127 c4.482,0,8.127,3.645,8.127,8.127c0,13.028,1.594,25.973,4.71,38.547c-1.545,0.518-3.115,0.938-4.71,1.262v-7.302 c0-4.488-3.638-8.127-8.127-8.127s-8.127,3.639-8.127,8.127v7.309c-18.525-3.775-32.508-20.193-32.508-39.817 c0-22.407,18.228-40.635,40.635-40.635c6.459,0,12.647,1.481,18.392,4.404l0,0c0.002,0.001,0.005,0.003,0.008,0.004l8.592,4.358 c0.912,0.463,1.855,0.807,2.809,1.092v9.104c0,4.488,3.638,8.127,8.127,8.127s8.127-3.639,8.127-8.127v-10.836 c0-0.649-0.085-1.278-0.228-1.883c0.207-0.187,0.423-0.363,0.622-0.562l43.37-43.103c43.292-43.028,113.627-42.92,156.789,0.242 l26.763,26.763c3.175,3.174,8.32,3.174,11.494,0c3.174-3.174,3.174-8.32,0-11.493l-26.763-26.763 c-49.48-49.479-130.111-49.602-179.742-0.277l-43.389,43.122c-0.165,0.165-0.418,0.206-0.625,0.1l-8.591-4.358 c-0.009-0.004-0.017-0.008-0.026-0.012c-5.532-2.81-11.36-4.643-17.398-5.529c4.204-78.684,74.195-141.494,159.628-141.494 s155.424,62.81,159.628,141.494c-6.038,0.885-11.866,2.719-17.397,5.529c-0.009,0.004-0.018,0.008-0.027,0.012l-6.537,3.317 c-2.013,1.022-3.88,2.31-5.548,3.828c-5.22,4.752-8.214,11.526-8.214,18.585v3.32c0,4.488,3.638,8.127,8.127,8.127 s8.127-3.639,8.127-8.127v-3.32c0-2.493,1.058-4.887,2.903-6.566c0.588-0.536,1.247-0.991,1.96-1.352l6.537-3.317 c0.002-0.001,0.004-0.003,0.008-0.004l0,0c5.745-2.922,11.933-4.404,18.392-4.404c22.407,0,40.635,18.228,40.635,40.635 C464.593,282.396,450.61,298.814,432.085,302.589z"></path> <circle cx="193.694" cy="121.905" r="8.127"></circle> <circle cx="160.102" cy="144.119" r="8.127"></circle> <circle cx="125.969" cy="175.543" r="8.127"></circle> <circle cx="160.102" cy="111.611" r="8.127"></circle> <circle cx="235.954" cy="79.103" r="8.127"></circle> <circle cx="279.298" cy="111.611" r="8.127"></circle> <circle cx="300.97" cy="89.939" r="8.127"></circle> <circle cx="201.821" cy="262.772" r="16.254"></circle> <circle cx="310.18" cy="262.772" r="16.254"></circle> <path d="M218.075,222.138h-32.508c-4.488,0-8.127,3.639-8.127,8.127c0,4.488,3.639,8.127,8.127,8.127h32.508 c4.488,0,8.127-3.639,8.127-8.127C226.202,225.776,222.563,222.138,218.075,222.138z"></path> <path d="M322.733,206.287c-8.223,2.671-16.903,2.673-25.098,0.004c-4.267-1.39-8.854,0.943-10.244,5.212 c-1.389,4.267,0.944,8.854,5.212,10.243c5.743,1.87,11.652,2.804,17.565,2.804c5.914,0,11.833-0.935,17.588-2.805 c4.268-1.387,6.606-5.972,5.218-10.24C331.587,207.236,326.996,204.9,322.733,206.287z"></path> <path d="M261.747,291.159c-1.534,1.535-3.576,2.381-5.746,2.381s-4.212-0.845-5.746-2.381c-3.174-3.173-8.32-3.174-11.493,0 c-3.175,3.174-3.175,8.32-0.001,11.494c4.605,4.605,10.728,7.141,17.24,7.141c6.512,0,12.635-2.537,17.24-7.141 c3.174-3.174,3.174-8.32-0.001-11.494C270.067,287.986,264.921,287.986,261.747,291.159z"></path> </g></symbol>

    <!-- avatar-5 -->
      <symbol id="avatar-5" viewBox="0 0 512.001 512.001" xml:space="preserve" fill="#000000"><g id="SVGRepo_bgCarrier" stroke-width="0"></g><g id="SVGRepo_tracerCarrier" stroke-linecap="round" stroke-linejoin="round"></g><g id="SVGRepo_iconCarrier"> <path style="fill:#ECCE93;" d="M185.899,390.127c-0.706,0.508-1.401,1.031-2.096,1.553c-7.072,5.314-13.547,11.381-19.288,18.095 c-0.066,0.078-0.132,0.155-0.2,0.233c-10.867,12.775-16.612,29.129-16.612,45.902v2.487v31.602 c7.842,3.338,15.873,6.314,24.066,8.928c3.972,1.268,7.983,2.446,12.031,3.538c0.001-0.001,0.001-0.001,0.002-0.002 c1.274,0.343,2.553,0.675,3.835,1c21.867,5.559,44.766,8.534,68.363,8.534V367.603C229.843,367.604,205.639,375.954,185.899,390.127 z"></path> <path style="fill:#E1B872;" d="M347.151,409.383L347.151,409.383c-5.451-6.391-11.585-12.167-18.3-17.212 c-0.913-0.686-1.822-1.378-2.75-2.043c-19.74-14.174-43.944-22.525-70.102-22.525c-19.492,0-37.897,4.642-54.181,12.87 c-5.568,2.813-10.891,6.042-15.921,9.653c-0.706,0.508-1.401,1.031-2.096,1.553c-6.79,5.102-13.021,10.904-18.59,17.301 c18.146,5.286,37.663,8.88,56.497,10.873c4.143,0.438,8.252,0.8,12.306,1.085C246.417,421.814,256,432.181,256,444.614l0,0v67.385 c24.979,0,49.179-3.329,72.198-9.534c0.001,0.001,0.001,0.001,0.002,0.002c4.048-1.091,8.058-2.271,12.031-3.538 c8.193-2.615,16.224-5.591,24.066-8.928v-2.067v-29.502v-2.52C364.297,438.857,358.218,422.36,347.151,409.383z"></path> <path style="fill:#964758;" d="M382.083,360.046L382.083,360.046c-83.283,16.119-168.884,16.119-252.166,0l0,0 c-35.086-6.79-60.428-37.508-60.428-73.245V180.893H442.51v105.908C442.511,322.538,417.169,353.256,382.083,360.046z"></path> <path style="fill:#E1B872;" d="M442.511,181.093c-6.767,0-13.235,1.259-19.205,3.53l0,0c-0.004,0.001-0.008,0.004-0.012,0.005 c-0.902,0.344-1.795,0.705-2.675,1.095c-0.887,0.39-1.762,0.804-2.622,1.242l0,0c-0.001-0.004-0.001-0.006-0.002-0.01 c-0.587-2.222-1.219-4.435-1.882-6.642c-0.013-0.046-0.029-0.091-0.043-0.137c-9.258-30.744-25.742-59.854-47.27-83.302l0,0 c-29.862-32.525-69.413-54.16-112.798-54.16c-76.957,0-141.858,68.068-161.996,144.251l-2.644,97.811 c1.748,12.994,4.107,26.382,7.092,38.551l0,0c4.511,18.389,10.455,33.99,17.905,41.195c27.439,26.542,92.914,39.181,139.936,39.181 s111.909-12.638,139.349-39.181c12.38-11.974,20.609-47.117,24.997-79.747c6.69,2.959,14.086,4.615,21.871,4.615 c29.905,0,54.148-24.243,54.148-54.148S472.417,181.093,442.511,181.093z"></path> <path style="fill:#ECCE93;" d="M345.453,229.622c-21.638,0.001-43.175-6.098-62.208-18.149 c-8.019-5.078-15.276-11.007-21.683-17.633c-3.053-3.156-8.069-3.156-11.122,0c-6.409,6.625-13.665,12.555-21.683,17.633 c-28.431,18.004-62.464,22.722-94.063,13.661l-2.064-0.67c-3.262-1.06-6.806-0.829-9.903,0.644l-0.046,0.022l0,0 c-3.232-17.1-14.509-31.331-29.742-38.668c-0.474-0.229-0.945-0.461-1.426-0.675c-0.578-0.258-1.167-0.495-1.756-0.733 c-8.119-3.287-17.193-4.706-26.728-3.577c-25.734,3.048-45.926,24.356-47.575,50.217c-2.008,31.512,22.955,57.697,54.035,57.697 c7.785,0,15.181-1.656,21.871-4.615c1.748,12.994,4.107,26.382,7.092,38.551c32.222,17.708,83.171,26.227,121.742,26.227 c47.022,0,111.909-12.638,139.349-39.181c11.708-11.324,19.523-43.494,24.025-74.569c0.853-5.89-4.528-10.802-10.316-9.416 C364.085,228.582,354.702,229.622,345.453,229.622z"></path> <path style="fill:#E1B872;" d="M89.757,185.052c0.588,0.238,1.178,0.474,1.756,0.733C90.935,185.527,90.345,185.291,89.757,185.052z "></path> <circle style="fill:#D5A150;" cx="442.512" cy="235.244" r="18.049"></circle> <circle style="fill:#E1B872;" cx="69.489" cy="235.244" r="18.049"></circle> <path style="fill:#964758;" d="M295.365,9.68C275.014,5.574,256,21.17,256,42.004c0-20.834-19.013-36.43-39.365-32.324 C132.532,26.646,69.489,96.856,69.489,180.893c0,0.063,0,0.136,0,0.2c8.826,0,17.152,2.125,24.515,5.872 c6.608,3.362,12.44,8.031,17.137,13.681l0,0c1.86-6.942,9.632-10.376,16.094-7.285c0.392,0.188,0.786,0.375,1.18,0.561 c59.296,28.046,127.585-15.502,127.585-81.097c0,65.595,68.288,109.144,127.585,81.097c0.393-0.187,0.787-0.373,1.18-0.561 c6.462-3.091,14.233,0.343,16.094,7.285l0,0c4.698-5.651,10.529-10.318,17.137-13.681c7.362-3.746,15.687-5.872,24.515-5.872 c0-0.064,0-0.137,0-0.2C442.511,96.856,379.467,26.646,295.365,9.68z"></path> <g> <path style="opacity:0.7;fill:#B35F6D;enable-background:new ;" d="M139.995,169.449c19.402,9.708,41.405,7.919,59.792-3.724 c18.246-11.554,29.139-31.329,29.139-52.899V9.544c-3.936-0.708-8.084-0.712-12.29,0.136 C153.344,22.448,101.983,65.373,80.438,121.65c1.899,2.719,3.937,5.635,6.043,8.641C98.595,147.576,125.17,162.032,139.995,169.449 z"></path> <path style="opacity:0.3;fill:#B35F6D;enable-background:new ;" d="M372.005,169.449c-19.402,9.708-41.405,7.919-59.792-3.724 c-18.246-11.554-29.139-31.329-29.139-52.899V9.544c3.936-0.708,8.084-0.712,12.29,0.136 c63.292,12.768,114.652,55.693,136.197,111.97c-1.899,2.719-3.937,5.635-6.043,8.641 C413.406,147.576,386.831,162.032,372.005,169.449z"></path> </g> <path style="fill:#964758;" d="M286.791,438.603c-4.005-0.066-7.884,0.427-11.565,1.408c-6.308,1.68-12.768,2.52-19.227,2.52 l-26.473,38.182l26.473,31.286c24.98,0,49.179-3.33,72.198-9.534v-2.499v-0.338v-17.711v-0.338 C328.198,458.79,309.577,438.979,286.791,438.603z"></path> <path style="fill:#B35F6D;" d="M236.773,440.012c-3.681-0.981-7.559-1.474-11.565-1.408c-22.786,0.375-41.405,20.186-41.405,42.976 v0.338v17.711v0.338v2.499c23.019,6.204,47.219,9.534,72.198,9.534v-69.467C249.54,442.532,243.08,441.692,236.773,440.012z"></path> <circle cx="195.837" cy="235.244" r="18.049"></circle> <circle cx="316.166" cy="235.244" r="18.049"></circle> <path d="M274.05,244.266h-36.099c-4.984,0-9.025,4.041-9.025,9.025c0,4.984,4.041,9.025,9.025,9.025h36.099 c4.985,0,9.025-4.041,9.025-9.025C283.074,248.307,279.034,244.266,274.05,244.266z"></path> <path d="M505.684,235.241c0-31.837-23.678-58.235-54.346-62.544c-1.883-39.576-17.358-77.823-44.055-108.488 C379.253,32.013,340.14,9.507,297.151,0.834c-12.347-2.492-25.025,0.658-34.776,8.641c-2.378,1.946-4.509,4.118-6.373,6.475 c-1.864-2.356-3.995-4.529-6.373-6.475c-9.754-7.984-22.432-11.132-34.776-8.641c-42.991,8.671-82.104,31.179-110.135,63.375 c-26.699,30.665-42.172,68.912-44.055,108.488c-30.668,4.309-54.346,30.706-54.346,62.544c0,31.769,23.576,58.124,54.148,62.518 v25.142c0,4.984,4.039,9.025,9.025,9.025s9.025-4.041,9.025-9.025v-25.154c1.84-0.264,3.67-0.584,5.476-1.01 c1.641,10.353,3.55,19.983,5.698,28.74c5.586,22.766,12.257,37.66,20.395,45.532c12.288,11.886,30.999,21.081,52.224,27.782 c-1.6,1.68-3.169,3.387-4.675,5.148l-0.193,0.225c-12.099,14.222-18.762,32.601-18.762,51.749v34.089 c0,4.984,4.039,9.025,9.025,9.025c4.985,0,9.025-4.041,9.025-9.025v-34.089c0-14.868,5.136-29.092,14.415-40.004l0.229-0.267 c3.447-4.031,7.221-7.827,11.234-11.348c24.7,5.698,50.996,8.434,73.686,8.434c22.522,0,48.632-2.728,73.188-8.405 c3.846,3.368,7.483,7.025,10.803,10.917c9.664,11.333,14.987,25.777,14.987,40.673v32.021c0,4.984,4.039,9.025,9.025,9.025 s9.025-4.041,9.025-9.025v-32.021c0-19.184-6.855-37.788-19.303-52.384c-1.373-1.61-2.806-3.174-4.263-4.716 c21.173-6.702,39.86-15.904,52.162-27.803c13.662-13.213,21.606-45.767,26.098-74.27c1.805,0.426,3.633,0.745,5.471,1.01v25.154 c0,4.984,4.039,9.025,9.025,9.025s9.025-4.041,9.025-9.025v-25.142C482.108,293.365,505.684,267.01,505.684,235.241z M218.42,18.526 c7.02-1.416,14.228,0.375,19.776,4.915c5.58,4.565,8.779,11.331,8.779,18.561c0,4.984,4.039,9.025,9.025,9.025 c4.985,0,9.025-4.041,9.025-9.025c0-7.229,3.2-13.996,8.779-18.561c5.548-4.541,12.76-6.333,19.776-4.915 c78.218,15.778,135.743,79.904,139.691,154.207c-6.724,0.984-13.209,3.053-19.367,6.186c-4.398,2.238-8.47,4.941-12.183,8.081 c-1.031-0.733-2.138-1.374-3.31-1.914c-5.591-2.574-11.984-2.526-17.544,0.134l-1.139,0.543 c-24.946,11.802-53.796,10.009-77.169-4.79c-23.502-14.882-37.532-40.359-37.532-68.149c0-4.984-4.039-9.025-9.025-9.025 s-9.025,4.041-9.025,9.025c0,27.791-14.03,53.268-37.532,68.149c-23.374,14.799-52.223,16.591-77.177,4.787l-1.136-0.541 c-5.554-2.657-11.948-2.705-17.539-0.131c-1.172,0.54-2.279,1.182-3.31,1.914c-3.713-3.141-7.787-5.843-12.183-8.081 c-6.158-3.133-12.643-5.202-19.367-6.186C82.679,98.43,140.202,34.305,218.42,18.526z M444.162,280.323 c-0.537-0.1-1.087-0.158-1.652-0.158c-0.564,0-1.114,0.059-1.65,0.158c-3.529-0.126-6.994-0.656-10.362-1.588 c1.887-15.852,2.985-31.692,2.985-43.493c0-4.977,4.048-9.025,9.025-9.025s9.025,4.048,9.025,9.025c0,4.984,4.039,9.025,9.025,9.025 s9.025-4.041,9.025-9.025c0-14.929-12.146-27.074-27.074-27.074s-27.074,12.145-27.074,27.074c0,12.844-1.398,30.911-3.74,48.329 v0.001c-5.042,37.486-13.598,66.02-22.33,74.464c-24.604,23.8-86.926,36.643-133.074,36.643 c-46.433,0-109.057-12.842-133.662-36.643c-3.12-3.018-9.271-11.819-15.414-36.858c-2.685-10.943-5.076-23.946-6.914-37.604v-0.001 c-2.342-17.418-3.74-35.485-3.74-48.329c0-14.929-12.146-27.074-27.074-27.074s-27.074,12.145-27.074,27.074 c0,4.984,4.039,9.025,9.025,9.025s9.025-4.041,9.025-9.025c0-4.977,4.048-9.025,9.025-9.025c4.977,0,9.025,4.048,9.025,9.025 c0,11.801,1.099,27.641,2.985,43.493c-3.368,0.933-6.831,1.462-10.362,1.588c-0.535-0.099-1.085-0.158-1.65-0.158 c-0.564,0-1.115,0.059-1.652,0.158c-24.118-0.874-43.471-20.754-43.471-45.081c0-24.882,20.242-45.124,45.124-45.124 c7.173,0,14.044,1.646,20.422,4.89c5.528,2.812,10.336,6.651,14.292,11.407c2.155,2.592,5.576,3.77,8.872,3.046 c3.295-0.722,5.911-3.221,6.784-6.479c0.23-0.857,0.823-1.288,1.279-1.498c0.413-0.189,1.249-0.439,2.198,0.017l1.22,0.58 c30.452,14.402,65.631,12.282,94.199-5.647c5.299,3.136,9.967,7.317,13.572,12.287c1.765,2.433,4.52,3.725,7.311,3.725 c1.837,0,3.692-0.56,5.292-1.721c4.035-2.928,4.932-8.571,2.005-12.605c-3.717-5.122-8.135-9.565-13.091-13.295 c9.371-8.752,16.868-19.148,22.155-30.623c5.285,11.471,12.779,21.865,22.145,30.615c-4.95,3.729-9.362,8.181-13.08,13.305 c-2.928,4.035-2.031,9.677,2.003,12.605c1.602,1.162,3.456,1.722,5.293,1.722c2.792,0,5.545-1.292,7.311-3.724 c3.665-5.05,8.267-9.196,13.546-12.305c16.003,10.05,34.079,15.141,52.239,15.141c14.264,0,28.579-3.138,41.976-9.475l1.224-0.582 c0.958-0.458,1.791-0.208,2.203-0.019c0.457,0.211,1.049,0.641,1.279,1.498c0.874,3.257,3.488,5.757,6.784,6.479 c3.292,0.726,6.717-0.451,8.872-3.046c3.955-4.757,8.764-8.595,14.292-11.407c6.379-3.245,13.249-4.89,20.422-4.89 c24.882,0,45.124,20.242,45.124,45.124C487.635,259.568,468.281,279.449,444.162,280.323z"></path> <path d="M328.198,437.395c-3.769,0-6.994,2.312-8.345,5.592c-8.895-8.108-20.457-13.201-32.913-13.406 c-4.755-0.073-9.477,0.497-14.036,1.711c-11.039,2.94-22.768,2.941-33.809,0c-4.557-1.213-9.261-1.782-14.036-1.71 c-12.454,0.205-24.017,5.299-32.911,13.406c-1.351-3.28-4.576-5.592-8.345-5.592c-4.985,0-9.025,4.041-9.025,9.025v56.046 c0,4.984,4.039,9.025,9.025,9.025s9.025-4.041,9.025-9.025v-20.886c0-18.113,14.897-33.662,32.529-33.952 c3.084-0.048,6.15,0.321,9.095,1.105c14.068,3.748,29.033,3.748,43.098,0c2.944-0.783,6.002-1.162,9.095-1.105 c17.633,0.29,32.53,15.839,32.53,33.952v20.886c0,4.984,4.039,9.025,9.025,9.025s9.025-4.041,9.025-9.025v-56.046 C337.223,441.434,333.182,437.395,328.198,437.395z"></path> </g></symbol>
	</defs>
</svg>